<svg id="Layer_1" data-name="Layer 1" xmlns="http://www.w3.org/2000/svg" viewBox="0 0 557.34 464.32"><defs><style>.cls-1{fill:#fff;}.cls-2{fill:#f0624e;}.cls-3{fill:#dd4132;}</style></defs><title>Bridge</title><g id="Js6cvw"><path class="cls-1" d="M387.33,492.06q-138.24,0-276.48,0c-1.61,0-2-.36-2-2q.06-230.19,0-460.38c0-1.61.36-2,2-2q276.7.06,553.4,0c1.61,0,2,.36,2,2q-.06,230.19,0,460.38c0,1.61-.36,2-2,2Q525.78,492,387.33,492.06ZM527.72,320.74l.56-.06,4.58-.07c.71.05,1.42.16,2.13.16q57.71,0,115.43.06c2,0,2-1,1.9-2.36s.53-2.88-1.83-2.6a34.64,34.64,0,0,1-4.07,0l-.1-3.89.63-.07c1.68-.12,3.84.71,4.94-.33s.14-3.38.46-5.08c.44-2.37-.64-3.16-2.78-3.09l0-4.59a.42.42,0,0,0,0-.64v-.64a.38.38,0,0,0,0-.6l0-.72a1.49,1.49,0,0,1,1.37-.44c1.18.17,1.37-.45,1.47-1.49.16-1.73-.34-2.33-2.19-2.34A115.65,115.65,0,0,1,612,285.14a127.21,127.21,0,0,1-23-10.87,134.13,134.13,0,0,1-26-20.68c-3.86-3.89-7.27-8.17-10.88-12.29-1.82-2.43-3.8-4.75-5.43-7.3a181.61,181.61,0,0,1-10.06-17.78,141.85,141.85,0,0,1-9.89-26.34c-1.42-5.43-3-10.82-2.87-16.57.17-9.71.06-19.42,0-29.13,0-1.22.36-2.69-1.39-3.18a.2.2,0,0,0-.33-.07,2.46,2.46,0,0,0-1.76-.15c-4.09-.35-4.62.11-4.63,4.2,0,7.42,0,14.84,0,22.26,0,4.27.39,8.55-.43,12.79a18.41,18.41,0,0,0-.94,5.12c-.39,1.14-.86,2.25-1.15,3.42A150.75,150.75,0,0,1,501.19,220c-.73,1.37-1.81,2.56-2.15,4.13a156.68,156.68,0,0,1-21.49,28.73.84.84,0,0,0-.56.75v0A2.07,2.07,0,0,0,475.6,255l-.86.78c-4.1,3.5-8,7.2-12.34,10.46a125.35,125.35,0,0,1-46.8,22.44,121,121,0,0,1-43.54,2.33,119.5,119.5,0,0,1-45.6-15.49,133.75,133.75,0,0,1-35.4-29.84c-4.18-4.95-7.83-10.27-11.53-15.57a21.39,21.39,0,0,0-2.53-4h0a3.49,3.49,0,0,0-1.21-2.1l0,0a3.34,3.34,0,0,0-.69-1.76,110.4,110.4,0,0,1-5.4-10.86,141.81,141.81,0,0,1-7.2-19.83c-1.94-6.84-3.65-13.69-3.42-20.95.28-8.83.07-17.69.06-26.53,0-3-.57-3.47-3.54-3.27-3.93-.4-4.58.17-4.59,4q-.07,17.59-.15,35.18l-1.16,4.65-.14,1.37c-1,3.18-2,6.35-2.92,9.54a141.67,141.67,0,0,1-13.79,31.09,150.88,150.88,0,0,1-18,24.24,166.27,166.27,0,0,1-19.88,17.48A124.92,124.92,0,0,1,160.69,286,115.91,115.91,0,0,1,125,292c-.87,0-2.22-.46-2.15,1.24,0,1.15-.61,2.8,1.66,2.55.79-.09.88.49.89,1.13s.12,1.27.18,1.9v4.11c-3.67.69-2.67,3.55-2.75,5.91a11.79,11.79,0,0,1,0,1.27c-.2,1.36.27,1.93,1.73,1.82s2.83,0,4.24.05l.08,3.49c-1.17.8-2.53.49-3.73.34-2.46-.3-2.27,1.12-2.37,2.8-.11,1.89.63,2.2,2.32,2.2q46.44-.08,92.87-.05c8.84,0,17.67-.06,26.51-.1l2.39,0c1.13.66.7,1.78.7,2.7,0,11.8,0,23.6,0,35.4,0,.84.11,1.69.17,2.53l-.21,3.76c-3.41.28-5.39,2.23-5.51,5.59-.08,2.28,0,4.57,0,6.85-.05,1.39.57,1.68,1.8,1.63,2-.08,4,0,6,0,4.63-.11,9.26.28,13.89-.2a10,10,0,0,0,3.28.06.49.49,0,0,0,.74,0c.88-2.84.26-5.74.35-8.61a5,5,0,0,0-4-5.15c-1.15-.28-1.27-.8-1.27-1.74,0-4.34-.09-8.69-.11-13q-.06-13.88-.09-27.76v-1.21c.31-.88,1.08-.72,1.74-.74,1.17,0,2.35-.06,3.52-.09.57,0,1.13.11,1.7.11H506.74c.71,0,1.42-.09,2.12-.14l2.91,0c.75.69.48,1.59.49,2.42q0,19.12.07,38.23l-.05,3c-.17.23-.3.62-.51.66-4.06.8-5.15,3.57-4.92,7.27.14,2.19-.92,5.06.39,6.41s4.34.45,6.59.44c4.92,0,9.84.3,14.75-.17l2,.05a2.38,2.38,0,0,0,2,0,29.16,29.16,0,0,0,.11-9.9,4.2,4.2,0,0,0-3.24-3.63c-2.08-.39-2.07-1.54-2.07-3.13,0-13.34,0-26.68-.07-40l0-1.2Z" transform="translate(-108.87 -27.79)"/><path class="cls-2" d="M279.54,230.15c3.7,5.3,7.35,10.63,11.53,15.57a133.75,133.75,0,0,0,35.4,29.84,119.5,119.5,0,0,0,45.6,15.49,121,121,0,0,0,43.54-2.33,125.35,125.35,0,0,0,46.8-22.44c4.3-3.26,8.24-7,12.34-10.46,1.88,1.34,1.72,3,.69,4.73a29.2,29.2,0,0,0-6,5.15,1,1,0,0,0,0,1.75.33.33,0,0,1,0,.4c-.63.23-.25,1-.68,1.32-.48-1.84-1,.46-1.49,0l-.18-.95c-.19.27-.55.54-.53.8,0,.65.46.14.72.14-.46.92,1.69.62.81,1.69-1,1.27-1.18,3-2,4.31v-6.66c-3.58,2.09-5.36,3.57-6,4.92-3.26.75-3,3.5-3,5.81-.15,4.61,0,9.22-.07,13.83,0,.75.25,1.57-.34,2.25V274.79c-2.15,1.94-4.49,2.43-6,4.24a5.54,5.54,0,0,0-3.42,2.56c-.08-.19-.14-.54-.24-.55-1.48-.19-5.32,2.44-5.74,3.9-1.42-1.75-2.41-.09-3.53.46-1.48.54-3,1.1-4.45,1.62a1.73,1.73,0,0,0-1.34,1.4c-1.37-.93-2.45.46-3.7.46-1.21.41-2.41.86-3.64,1.2a2.26,2.26,0,0,0-2,2.67c.16,2.48,0,5,0,7.47,0,3.57,0,3.48,3.66,3.57,1.68,0,2-.55,2-2.08-.07-4,0-8,.06-11.94.53.61.31,1.35.31,2,0,3.32.1,6.65,0,10-.06,1.52.83,1.67,1.87,2,1.54.44.9-1.06,1.42-1.53.09,1,.41,1.77,1.69,1.55a5.53,5.53,0,0,1,1.71,0c1.81.27,2.46-.3,2.41-2.27-.13-4.77,0-9.54.05-14.32.54.61.32,1.35.32,2,0,4.18.08,8.36,0,12.54,0,1.45.69,1.83,1.82,2.07,1.44.31,1-1,1.4-1.6.16,1,.44,1.72,1.7,1.54a12.83,12.83,0,0,1,2.72-.09c1.15.08,1.45-.54,1.49-1.5.77,2,1.39,2.18,3.47,1.14a11.16,11.16,0,0,0,5.9.14,8.71,8.71,0,0,0,3.69.37c1.9-.39,3.87.34,5.74-.39,1.17.7,2.44.36,3.68.39,1.89-.39,3.86.33,5.73-.38,1.18.82,2.36.2,3.55,0a12.73,12.73,0,0,0,5.87,0c1.17.65,2.42.41,3.65.34,1.9-.26,3.86.31,5.74-.35,1.18.59,2.37-.09,3.55,0,1.87.61,3.82,0,5.71.36,1.23,0,2.51.28,3.67-.4l2.65.36c-1.08.2-1,1-1,1.82q0,3.2,0,6.4a13.81,13.81,0,0,0-3.82,0l-4.92-.05a7.39,7.39,0,0,0-4,.14l-4.81-.11a13.89,13.89,0,0,0-4.1,0c-1.61,0-3.27-.46-4.81.37-1.21-1-2.59-.42-3.91-.4h-4.9a7.81,7.81,0,0,0-4,0l-4.84,0a8.8,8.8,0,0,0-4.11,0,22.54,22.54,0,0,0-2.93-.09c-1.25,0-1.48.56-1.56,1.68-.12,1.72.41,2.52,2.22,2.27a19.93,19.93,0,0,1,2.33-.06l4,0,4.9,0,4,0,5,0h3.76l4.93-.06,4,0,4.9,0,4,0,5,0,3.75,0,0,4.81c-.71,0-1.42.14-2.12.14H269.57c-.57,0-1.13-.07-1.7-.11,1-1.48.29-3.15.49-4.72.46-.16,1.08.1,1.38-.51,1.55.84,3.2.32,4.81.38l4.05,0,4.9,0h4l4.94,0c.91,0,1.82,0,2.73,0,.4,0,.79,0,1-.5.82-2-.19-3.5-2.32-3.46-.49,0-1,.07-1.47.11a26.47,26.47,0,0,0-4.85.14,5.78,5.78,0,0,0-4.1,0,24.21,24.21,0,0,0-4.81-.1,9.47,9.47,0,0,0-4.11,0c-1.6.08-3.25-.45-4.79.4-.41-.75-1.21-.39-1.8-.62.91-2.63.26-5.34.38-8,1.18,0,2.38.25,3.49-.37,1.87.69,3.83,0,5.72.4,1.28-.75,2.57.24,3.86,0H287c1.27.25,2.46-.28,3.69-.38,1.47.4,3,.06,4.45.18.94.08,1.22-.5,1.44-1.21.42,2.22,1.8,1.57,3.13,1a25.79,25.79,0,0,0,6.2.07c1.26.65,2.6.24,3.91.32,1.83-.34,3.71.2,5.54-.31,1.31-.14,2.56.61,3.88.31a33.59,33.59,0,0,1,3.62-.07c1.43.12,1.84-.41,1.79-1.81-.07-2.2.06-4.4.11-6.6.57,1.64.18,3.33.24,5,.14,3.77-.77,3.56,3.65,3.49,1.35,0,2.71-.14,4.06-.09.89,0,1.34-.26,1.44-1.13,1,1.61,2.28,1.62,3.76.78,1.53.68,3.14.21,4.71.32.81.06.79-.61,1-1.1.85,1.83,2.49,1.14,3.89,1.22a27.15,27.15,0,0,1,5.3,0h4.12a1.18,1.18,0,0,1,.21,0c1.61-.05,3.61.47,4.72-.3,1.35-.93.15-3.14.62-4.74a4.08,4.08,0,0,1,.26,2.84c-.21,1.91.55,2.56,2.36,2.28a10,10,0,0,1,1.25,0c1.39,0,2.78-.14,4.16-.1.87,0,1.31-.27,1.38-1.12,1.58,1.47,2.76,1.47,3.67,0,.15.51.09,1.2.92,1.13,1.58-.13,3.2.34,4.75-.29,1.26,1,2.53-.2,3.79,0a10.6,10.6,0,0,0,5.67,0c1.24.28,2.49.71,3.74,0a11.47,11.47,0,0,0,5.63,0l4,.38c1.84-.36,3.76.28,5.57-.41,1.44,0,3.39,1,3.58-1.67,0,1.39.4,2.1,2.08,2,3.44-.13,3.44,0,3.79-3.74.49.63.28,1.37.27,2.05,0,1.09.32,1.73,1.55,1.78s1.46-.7,1.44-1.74c0-2.62,0-5.24,0-7.86,0-3.61,0-3.61-3.36-2.42a18,18,0,0,1-3.27.71c-1.89.06-2.63.95-2.48,2.75-.89-2.44-.89-2.44-3.65-1.32-1.92.41-4.08-.17-5.75,1.32-1.26-.36-2.52-.9-3.78,0l-5.58.41c-1.26.13-2.59-.33-3.78.44-1.8-.9-3.73-.13-5.57-.42a10.92,10.92,0,0,0-3.93,0c-.56,0-1.13-.07-1.69-.12-3.7-.37-3.7-.37-3.94,3.11-.59-.67-.34-1.49-.34-2.24,0-1.58-1.35-1.29-2.15-1.46-1.14-.24-.81.85-.87,1.47-.19,1.74.35,3.52-.33,5.22,0-1.9-.09-3.8-.09-5.7,0-.8-.21-1.58-1.1-1.43-1.5.26-3-1.3-4.44.1-.12.12-.08.4-.11.61-.47-.73-.37-1.79-1.85-1.8s-1.38,1-1.81,1.79c.12-1.7-.63-2.5-2.37-2.61a18.55,18.55,0,0,1-3.27-.79c-1.24,0-2.46-1.53-3.72-.06-1.37-2.08-3.68-2-5.73-2.48-1.22-.47-2.29-2-3.77-.49-1-2.64-3.6-2.34-5.69-3l-1.57-1c-1.33-.87-2-.69-1.88,1.08a3.65,3.65,0,0,1-.26,2.46c.83-4.42-1.8-6.21-5.48-7.19a1.12,1.12,0,0,0-.21,0c-2.91-2.15-3.15-2.13-3.67.32-.29-1.42.21-3.21-1.86-3.77-1.4-.38-2.24-2-3.94-1.76a7.93,7.93,0,0,0-3.57-2.53,13.64,13.64,0,0,0-5.81-4.25c-1.72-.4-2.58-1.82-3.6-3.05-1.55-2-3.73-3.32-5.42-5.17l-.56.2v10.09c-.54-.61-.32-1.36-.33-2.05,0-2.57-.05-5.14,0-7.7a2,2,0,0,0-1.08-1.93c-.85-.41-.44,1.14-1.26,1-.86-.83.58-2.24-.74-3a39.88,39.88,0,0,0-6-6.52v12c-.8-.13-.58-.67-.66-1.25-.24-1.62-.68-3.23-2.73-3.51,0-2.28,0-4.56-.14-6.83-.11-1.76.53-3.74-.4-5.25a85,85,0,0,0-5.39-7c0,3.5,0,6.4,0,9.31q0,18-.07,36c-.57-.6-.34-1.35-.35-2,0-2.23.43-4.56-1.94-6.09-.79-.51-.57-1.52-.66-2.36-.17-1.51.56-3.12-.47-4.53,0-.78-.12-1.55-.12-2.33q0-15.46,0-30.91a8.56,8.56,0,0,0-.29-3.15c.22-1.14-.29-2.37.43-3.44h0C278.54,229.19,279,229.89,279.54,230.15Zm48.18,85.69,4.05,0,4.87,0h4l4.91,0c1.29-.18,2.67.5,3.88-.42,1.55.85,3.22.31,4.83.39l4,0,4.87,0,4,0,4.95,0h3.76l4.93-.05,4,0,4.88,0,4,0c1.64.44,3.3-.48,4.95,0,1.29-.21,2.67.51,3.88-.42,1.55.84,3.21.31,4.82.39l4.06,0,4.88,0,4,0,5,0c.86,0,1.71,0,2.57,0,.41,0,1.06.11,1.11-.37a8.53,8.53,0,0,0-.08-3.17c-.23-.77-1.25-.37-1.93-.41a14.15,14.15,0,0,0-1.71.1l-4.92,0c-1.24-.52-2.56,0-3.82-.34l-5,.29a9.64,9.64,0,0,0-4.17,0c-1.58.26-3.4-.83-4.73.84-.94-2-2.6-.62-3.92-.85-1.62-.38-3.26-1-4.72.41-1.33-1.19-2.8-.49-4.23-.33a8.35,8.35,0,0,0-4.74.33c-1.28-1.07-2.72-.67-4.15-.46-1.63-.22-3.26-.87-4.89,0l-3.84,0h-4.89a7.84,7.84,0,0,0-4,0l-4.83,0a8.86,8.86,0,0,0-4.13,0c-1.59.25-3.43-.85-4.77.83-.95-1.92-2.61-.59-3.92-.86l-4.86,0a7.48,7.48,0,0,0-4.09,0L331.8,312a16.27,16.27,0,0,0-4.1,0c-.91,0-1.84,0-2.74-.07-1.45-.15-1.74.55-1.78,1.86,0,1.53.37,2.26,2,2.06A24.37,24.37,0,0,1,327.72,315.84ZM434,312.06c-.91,0-1.83,0-2.74-.06-1.44-.14-1.74.54-1.78,1.86,0,1.53.36,2.26,2,2.06a24.27,24.27,0,0,1,2.53-.06l4.06,0,4.87,0,4,0,4.94,0c.84,0,1.69,0,2.53,0,.45,0,1,.14,1.23-.49.84-1.91-.2-3.5-2.33-3.46-.49,0-1,.06-1.47.1l-4.86,0a8.48,8.48,0,0,0-4.08,0h-4.81A15.46,15.46,0,0,0,434,312.06Zm-132.88,3.79,4,0,4.9,0h4l4.94,0c.86,0,1.71,0,2.57,0,.41,0,1.06.11,1.11-.38a8.53,8.53,0,0,0-.08-3.17c-.23-.77-1.26-.35-1.93-.4a11.19,11.19,0,0,0-1.7.12h-4.86c-1.25-.48-2.58-.06-3.86-.32a10.77,10.77,0,0,1-5.22-.05l-4,.37a24.42,24.42,0,0,1-2.56-.06c-1.6-.19-1.83.61-1.9,2-.09,1.76.73,2.06,2.18,1.92C299.56,315.83,300.35,315.86,301.13,315.85Z" transform="translate(-108.87 -27.79)"/><path class="cls-2" d="M128.77,312c-1.42,0-2.84-.16-4.24-.05s-1.93-.46-1.73-1.82a11.79,11.79,0,0,0,0-1.27c.08-2.36-.92-5.23,2.75-5.91,1,1.71,2.35.33,3.53.46,1.85.77,3.8.06,5.68.43h3.93c1.88-.34,3.82.24,5.68-.35l3.69.36c1.06,0,2.11,0,3.17-.11s2,.41,2.6-.83c.89,2,2.3.58,3.5.54,1.87.71,3.84,0,5.73.39,1.28,0,2.61.29,3.64-.8.22.88.93.7,1.55.71l4.23.09c1.17-.24,3.17.89,3.23-1.28.17-5.63.06-11.27,0-16.91,0-1.07-.56-1-1.43-.79-1.88.49-1.39,2.05-1.65,3.28-.48-.74.1-1.69-.58-2.54-1.68,1.17-4.06.94-5.41,2.83-1.24,0-2.63-.47-3.45,1a2.56,2.56,0,0,0-1.62.22c-4.07,1.14-4.07,1.13-4.34,5.23a1.8,1.8,0,0,1-.34-1.61c.16-1.76-.65-2.15-2.17-1.62-.33.12-.68.18-1,.27-1.94.62-4.07.56-5.87,1.67-1.22-.18-2.44-.34-3.5.56a27.43,27.43,0,0,0-5.88.72c-1.28-.19-2.45.45-3.7.48-1.94.11-3.93-.08-5.76.82-2.84-1-3.19-.72-3.5,2.67-.06-.63-.17-1.27-.18-1.9s-.1-1.22-.89-1.13c-2.27.25-1.62-1.4-1.66-2.55-.07-1.7,1.28-1.23,2.15-1.24a115.91,115.91,0,0,0,35.73-6,124.92,124.92,0,0,0,34.25-17.65,166.27,166.27,0,0,0,19.88-17.48c-.07,1.5,1.91,1.5,2.07,2.83a4.43,4.43,0,0,1-.82,1.21,5.5,5.5,0,0,0-2.24,5.33c.17,2.25,0,4.53-.08,6.79-1.18.44-.53,1.45-.67,2.21-.21,1.15.37,2.43-.43,3.54-.82-.58,0-1.65-1-2.17a6.67,6.67,0,0,0-.26,2.89c0,.8,0,1.63-1.09,1.69V260.73a37.66,37.66,0,0,1-3.65,3.14c-1.86,1.19-2.21,2.79-2.19,4.89.11,9.91.06,19.83.07,29.74,0,5.62,0,5.62,5.69,5,1.38.48,2.8,1.1,3.6-.86,1.28,2.13,3.29.81,4.93.91,1.36.08.5-1.48.89-2.21.11.25.33.52.3.76-.24,1.65.69,1.77,2,1.72,1.86-.08.76-1.28.81-2a2.36,2.36,0,0,1,.5-1.75c.21,3.67.21,3.67,3.89,3.58.63,0,1.25-.11,1.88-.17,1.44.36,3.12,1.42,3.54-1.21.26.53.14,1.4,1.06,1.37,1.61-.06,3.24.3,4.83-.16,1.25-.13,2.42.65,3.69.37h1.84l0,8.13c-.92,0-1.84-.05-2.76-.05-.51,0-.92.07-1.11.71-.66,2.19.09,3.26,2.36,3.25l1.49,0c.26,1.59-.51,3.3.52,4.81-8.84,0-17.67.09-26.51.1q-46.44,0-92.87.05c-1.69,0-2.43-.3-2.32-2.2.1-1.68-.08-3.1,2.37-2.8,1.2.15,2.56.46,3.73-.34.81.63,1.77.29,2.65.41,1.54.2,1.9-.53,1.89-1.94s-.33-2.14-1.88-2A25.07,25.07,0,0,1,128.77,312Zm79.76.47a3.65,3.65,0,0,0-4.09,0,7.28,7.28,0,0,0-4.76-.29,10.6,10.6,0,0,0-4.14-.13l-4.85,0c-1.31,0-2.69-.63-3.89.41-1.56-.9-3.26-.25-4.88-.45-1.36.08-2.8-.6-4.06.44-1.56-.82-3.21-.35-4.83-.37a12.16,12.16,0,0,0-4.08,0,19.73,19.73,0,0,0-4.83.08,9.92,9.92,0,0,0-3.81-.12h-9l-4.82,0a11.71,11.71,0,0,0-4.14,0l-4.83.09-2.32-.21c-1.09-.11-1.4.35-1.51,1.45-.21,2,.39,2.94,2.51,2.53a8.11,8.11,0,0,1,1.28,0h4.92l4,0,4.91,0,3.87,0h.84c3.36,0,3.36,0,4.15-3,.24,3.08.24,3.08,3.43,3l.42,0H169l4,0,4.91,0c1.34-.17,2.77.44,4-.42a5.87,5.87,0,0,0,4.83,0c1.2.89,2.56.25,3.84.39l4.92,0,4,0,4.93,0,3.87,0a21.06,21.06,0,0,1,2.35,0c1.65.19,2.4-.24,2.39-2.15,0-2.17-1.35-1.68-2.56-1.77A6.14,6.14,0,0,0,208.53,312.47Zm17.67-.4a14.45,14.45,0,0,0-4.08,0l-4.82.1c-.77-.07-1.55-.12-2.32-.2-1.09-.12-1.41.33-1.52,1.44-.2,2,.39,2.95,2.51,2.54a8.51,8.51,0,0,1,1.28-.05l4.91,0c1.39-.22,2.89.59,4.18-.45,1.51,1,3.19.28,4.78.46.92,0,1.84,0,2.76,0,.4,0,1,.17,1.1-.35a5.21,5.21,0,0,0,0-3.13c-.33-.93-1.31-.62-2-.62a14.05,14.05,0,0,0-1.88.23ZM182,303.48c1.27-.21,3.22,1.44,3.58-1.3.07,1,.38,1.61,1.56,1.47a8.57,8.57,0,0,1,2.13,0c1.55.2,2.17-.33,2.09-2-.12-2.7-.06-5.41,0-8.11.09-5.11-.23-10.23.18-15.34a5,5,0,0,1,.18,2.32c0,7.13,0,14.27,0,21.4,0,.69-.4,1.69.81,1.88s2,.06,2.23-1.31c0-.12.15-.23.24-.34.09.88.25,1.6,1.46,1.49,1.44-.14,2.9-.12,4.35-.17,2.78.87,3.31.51,3.29-2.33-.05-5.93-.08-11.87-.24-17.8,0-1.45-1.48-2-2.59-2.72a5.54,5.54,0,0,0-.37.48c-.05-3.56-.1-7.13-.16-10.69,0-.4.18-.91-.31-1.14s-.76.25-1.09.48c-2.47,1.73-5.32,3.23-4.35,7.07-.91-.94.53-2.88-1-3.23s-1.35,1.9-2.52,2.41c-2-.28-3,1.58-4.61,2.14a2,2,0,0,0-1.3,2.12c-.41-.16-.5-1.06-.63-.86-.66,1.14-2.42.69-2.82,2.07-1.55-.34-2.59.88-3.9,1.26-1.84.54-2,1.75-2,3.4.1,4.2,0,8.41,0,12.62C176.24,304.3,176.45,304.47,182,303.48Z" transform="translate(-108.87 -27.79)"/><path class="cls-2" d="M649.55,303.43c2.14-.06,3.22.72,2.78,3.09-.32,1.71.74,3.95-.46,5.08s-3.25.21-4.94.33l-.63.07a21.61,21.61,0,0,1-2.55,0c-1.58-.18-2.06.41-2.08,2,0,1.76.76,2,2.19,1.9.84-.08,1.7,0,2.55,0a34.64,34.64,0,0,0,4.07,0c2.36-.28,1.76,1.36,1.83,2.6s.15,2.37-1.9,2.36q-57.71-.1-115.43-.06c-.71,0-1.42-.1-2.13-.16q0-2.34,0-4.68c2.27.41,2.22-1,2.2-2.61,0-2-1.36-1.32-2.36-1.35a6.72,6.72,0,0,0-1,.13,2.52,2.52,0,0,0,1.26-2.6c-.11-1.92-.06-3.84-.08-5.77l.35-1.28c.57,2.47,2.17,1.29,3.52,1a16.35,16.35,0,0,0,5.81,0c1.52.48,3.07,1,3.55-1.32.07.9.26,1.59,1.46,1.49,1.44-.12,2.9.26,4.34-.16,2.66.83,3.4.28,3.29-2.44-.05-1.36-.77-2.76.33-4,0,1.63.06,3.27.12,4.9,0,.48,0,1.28.25,1.39,1.47.66,3.07.38,4.59.24,1.3-.12.71-1.38.72-2.1.1-6.61.13-13.22.18-19.83a3.72,3.72,0,0,1,.26,2.29c0,5.87,0,11.75,0,17.62,0,.79-.6,2,.8,2.31s2.08-.47,2.46-1.67c.62,2.88,2.84,1,4.28,1.4s1.37-.92,1.53-1.83c.5,2,1.79,2.46,3.62,1.75,1.49,0,3,.08,4.48.15a1.12,1.12,0,0,0,1.33-1,2.05,2.05,0,0,0,2.16,1.27c1.07-.12,1-1,1.32-1.64.13,1,.58,1.5,1.66,1.41a14.76,14.76,0,0,1,2.75,0c1.17.12,1.47-.52,1.51-1.48a2.1,2.1,0,0,0,2.6,1.47c1.08-.2.65-1.38.7-2.17.13-2-.21-4.07.18-6.08.39,2.18.07,4.37.21,6.56,0,.53-.19,1.15.41,1.55.78.53,4.46.22,5.33-.46a2.52,2.52,0,0,0,2.72.72c1.13-.49.54-1.64.56-2.47.1-4.33.12-8.66.16-13,.07.77.19,1.54.2,2.31,0,3.76,0,7.53,0,11.29,0,.63-.34,1.69.67,1.74,1.7.07,3.5.55,5.07-.61a5,5,0,0,0,3.63.81h15c1.21-.25,2.49.08,3.68-.42,1.87.71,3.83.07,5.72.41,1.6-.15,3.6.37,3.72-2.24.51.67-.38,2.22,1.31,2.14,1.52-.07,3.07.3,4.55-.32C647.18,304.35,648.37,303.05,649.55,303.43ZM540,312c-1,0-2,.06-3,0-1.22-.08-1.58.44-1.62,1.62-.06,1.66.22,2.65,2.22,2.23a11.08,11.08,0,0,1,2.51,0H544l4.93,0,4,0,4.91,0c.86,0,1.71,0,2.57,0s1.12-.16,1.21-1c.27-2.74,0-3.08-2.77-2.92a7.35,7.35,0,0,0-1,.21,20.84,20.84,0,0,0-4.82-.09c-.83-.06-1.66-.08-2.48-.19-1.12-.15-1.76.23-1.73,1.43-1.24-1.72-3-1.62-4.76-1.27A10.37,10.37,0,0,0,540,312Zm53.23,3.89,3.87,0,4.92,0,4,0H611c.85,0,1.71,0,2.56.05s1.16-.38,1.21-1.26c.14-2.66,0-2.82-2.56-2.72a11.55,11.55,0,0,0-1.26.19l-4.82-.08a9.68,9.68,0,0,0-4.12.16,5.86,5.86,0,0,0-4.84-.18,13.26,13.26,0,0,0-4.05.09c-.84,0-1.7,0-2.53-.1-1.6-.2-2,.47-2,2s.53,2,2,1.88C591.41,315.82,592.33,315.89,593.25,315.89Zm26.58,0c1.32-.2,2.73.46,4-.44,1.56.85,3.23.31,4.85.39l4,0h4.91c.85,0,1.7,0,2.55,0,.41,0,1,.1,1.1-.38a8.63,8.63,0,0,0-.06-3.15c-.22-.79-1.25-.36-1.91-.42a9.7,9.7,0,0,0-1.69.12l-4.88-.05a9.24,9.24,0,0,0-4.11,0c-1.59.1-3.23-.44-4.76.41a3.69,3.69,0,0,0-4.09,0,7.29,7.29,0,0,0-2.91-.48c-1.15,0-1.59.33-1.69,1.56-.15,1.88.47,2.64,2.37,2.37A16.53,16.53,0,0,1,619.83,315.89ZM566.6,312c-1.13,0-2.26,0-3.39,0-1.5,0-1.19,1.1-1.19,2s-.28,2,1.22,1.91c1.1-.07,2.27.36,3.28-.42,1.27.87,2.69.24,4,.42l4.92,0,4,0h4.93c.85,0,1.71,0,2.56,0,.41,0,1,.11,1.09-.4a8.56,8.56,0,0,0-.09-3.15c-.23-.76-1.25-.37-1.93-.39a11.38,11.38,0,0,0-1.68.18,21.65,21.65,0,0,0-4.82-.07,9.55,9.55,0,0,0-4.15,0c-1.59.09-3.23-.45-4.76.4C569.39,311.42,568,312.09,566.6,312Z" transform="translate(-108.87 -27.79)"/><path class="cls-2" d="M512.33,361.33q0-19.12-.07-38.23c0-.83.26-1.73-.49-2.42.55-.38.52-1,.52-1.52q0-7.74-.08-15.48,0-13.8.06-27.6,0-22.26,0-44.52c0-1.37.25-2.57,1.93-2.77,2,0,4,.07,6,.08,3.2,0,3.23,0,3.23,3.23q0,29.2,0,58.39,0,21.49,0,43c0,8.63,0,17.27,0,25.9,0,1.45-.37,2-1.92,2C518.47,361.25,515.39,361.33,512.33,361.33Z" transform="translate(-108.87 -27.79)"/><path class="cls-2" d="M247.74,361.34c-.06-.84-.17-1.69-.17-2.53,0-11.8,0-23.6,0-35.4,0-.92.43-2-.7-2.7a2.32,2.32,0,0,0,.95-2q-.05-7.57-.12-15.13,0-24.85,0-49.71,0-11.14,0-22.28c0-1.25,0-2.51,1.66-2.75,2.07,0,4.14.06,6.21.07,3,0,3,0,3,2.94,0,17.21-.08,34.43-.08,51.64q0,38,.11,76c0,1.58-.61,1.92-2,1.88C253.6,361.27,250.67,361.33,247.74,361.34Z" transform="translate(-108.87 -27.79)"/><path class="cls-3" d="M247.74,361.34c2.93,0,5.86-.07,8.79,0,1.41,0,2-.3,2-1.88q-.11-38-.11-76c0-17.21.05-34.43.08-51.64,0-2.94,0-2.93-3-2.94-2.07,0-4.14,0-6.21-.07l.27-2.05c2,0,4-.05,6,0,1.14,0,1.68-.28,1.67-1.55,0-13.4,0-26.81,0-40.21,0-.54.11-1.14-.58-1.46-1.3-.62-6,.12-7,1.14l1.16-4.65c.79,1.13,4.48,1.8,5.49,1a.91.91,0,0,0,.4-.92c-.35-1.49.15-2.94.14-4.42q-.08-14.93,0-29.87c0-1.8,0-3.51-1.25-5,3-.2,3.54.31,3.54,3.27,0,8.84.22,17.69-.06,26.53-.23,7.26,1.49,14.1,3.42,20.95a141.81,141.81,0,0,0,7.2,19.83,110.4,110.4,0,0,0,5.4,10.86,3.33,3.33,0,0,1,.68,1.76l-.21.23.25-.19a3.49,3.49,0,0,1,1.21,2.1c-.63-.13-.83-1.55-1.81-.63-.37.34,0,.58.19.85.68.79,1.17.46,1.63-.24a21.39,21.39,0,0,1,2.53,4c-.55-.26-1-1-1.74-.42-.07-.59.22-1.27-.43-1.72,0-.27,0-.59-.4-.64-.07,0-.25.17-.23.24.05.36.37.35.64.39.06.59-.21,1.27.43,1.72-.73,1.07-.21,2.3-.43,3.44-.49-.69-1-1.35-1.45-2.06-1.39-2.16-2.46-4.53-4.12-6.52-.55-2.45-2.1-4.38-3.4-6.44-.8-3.2-2.6-6-3.73-9.06s-2.46-6.28-3.7-9.42c-.32,9.31-.32,18.55-.32,27.8,0,.42-.08.92.39,1.14,1.79.85,1.64,2.47,1.64,4q0,32.85,0,65.7c0,5.43,0,5.43,5.49,5.34l.14.14c-.12,2.67.53,5.37-.38,8-1.17.09-2.14,0-2.21,1.87-.08,2.31,1.11,2.26,2.62,2.26-.2,1.57.54,3.23-.49,4.72-1.17,0-2.35,0-3.52.09-.66,0-1.43-.14-1.74.74a.84.84,0,0,0,0,1.21q0,13.88.09,27.76c0,4.34.1,8.69.11,13,0,.95.12,1.46,1.27,1.74a5,5,0,0,1,4,5.15c-.09,2.87.53,5.77-.35,8.61h-.74a10,10,0,0,1-3.28-.06c0-3,0-6,0-9a4.73,4.73,0,0,0-4.84-4.79l-11.3-.09ZM275.55,228l-.09-.17c0,.05-.11.1-.11.15s.05.11.09.17Z" transform="translate(-108.87 -27.79)"/><path class="cls-3" d="M512.33,361.33c3.07,0,6.14-.08,9.2,0,1.55.05,1.92-.53,1.92-2-.05-8.63,0-17.27,0-25.9q0-21.49,0-43,0-29.2,0-58.39c0-3.21,0-3.22-3.23-3.23-2,0-4,0-6-.08l.28-2.06c1.92,0,3.85-.1,5.77,0,1.55.09,1.91-.53,1.91-2q-.07-19.57,0-39.13c0-1.67-.55-2.38-2.23-2.23a11.59,11.59,0,0,1-2.56,0,2.46,2.46,0,0,0-2.93,1.75h0a18.41,18.41,0,0,1,.94-5.12c1.11,1.7,2.85,1.16,4.43,1.25,1.12.06,1.48-.41,1.5-1.51,0-2,.21-4,.14-6-.36-9.42,0-18.84-.13-28.26a10.67,10.67,0,0,0-.85-4.77,2.46,2.46,0,0,1,1.76.15l.16.08h.18c1.75.49,1.39,2,1.39,3.18,0,9.71.14,19.43,0,29.13-.1,5.75,1.44,11.14,2.87,16.57a141.85,141.85,0,0,0,9.89,26.34A181.61,181.61,0,0,0,546.72,234c1.62,2.55,3.61,4.87,5.43,7.3-.81,1.34-2.64-.06-3.44,1.29a6.9,6.9,0,0,1-2.11-2.75l-4-5.37c-.58-1-1.08-2.11-1.76-3.08-1.47-2.11-2.37-4.59-4.17-6.48a38.91,38.91,0,0,0-3.66-7.18c-.49-2.33-1.92-4.25-2.74-6.45-1.43-3.86-3-7.67-4.77-12.07,0,9.12,0,17.61,0,26.1,0,1.51-.35,3.11,1.38,4.12.64.37.46,1.3.46,2q0,36,0,71.94c.14.52.52.51.94.42l4.54-.06c0,1.92,0,3.85.08,5.77a2.52,2.52,0,0,1-1.26,2.6c0,.9,0,1.81,0,2.7s.53,1.1,1.26,1.13q0,2.34,0,4.68l-4.58.07-.56.06-.38.37,0,1.2c0,13.34.08,26.68.07,40,0,1.59,0,2.74,2.07,3.13a4.2,4.2,0,0,1,3.24,3.63,29.15,29.15,0,0,1-.11,9.9h-2l-2-.05c0-2.71,0-5.42,0-8.13,0-3.7-1.92-5.61-5.64-5.62-2.92,0-5.85,0-8.77,0-.73,0-1.65.31-1.89-.84ZM549,239.17l-.08-.16s-.1.09-.11.14,0,.11.08.16Zm.69,1.07-.3,0s.09.1.14.11S549.66,240.27,549.72,240.24Z" transform="translate(-108.87 -27.79)"/><path class="cls-2" d="M548.7,242.59c.8-1.36,2.64,0,3.44-1.29,3.61,4.11,7,8.39,10.88,12.29a134.13,134.13,0,0,0,26,20.68,127.21,127.21,0,0,0,23,10.87A115.65,115.65,0,0,0,650.17,292c1.85,0,2.35.61,2.19,2.34-.1,1-.28,1.66-1.47,1.49a1.49,1.49,0,0,0-1.37.44c-1.08-1-2.37-.33-3.56-.48a31.59,31.59,0,0,1-3.58-.36c-1.57-.33-2.17.34-2.24,1.78,0-2.6-2.15-1.89-3.58-2.28a32.82,32.82,0,0,0-5.8-.81c-1.12-.67-2.36-.47-3.56-.48-1.79-1.13-3.93-1-5.86-1.67l-3.6-.91c-2-.6-3.79-1.63-5.92-1.59-.92-1.06-2.2-1.21-3.47-1.42-1.23-.88-2.77-1.09-4-1.8-1.45-.8-1.79-.18-1.93,1.08-.27-2.42-1.12-3-3.44-2.27-.18-.56,0-1.28-.76-1.59-1.62-.61-3-1.77-4.83-2.08l-.35,2.3c-.18-2-.38-3.92-3-4.23-.39.45.54,1.38-.45,1.75.27-3.93-3.7-3.52-5.29-5.64-.79,1-.22,1.92-.63,2.66-.84-.5-.23-1.23-.3-1.86-.24-1.9-1.34-2.46-3.17-1.6-.14-.93.1-1.91-1.05-2.54a29.93,29.93,0,0,1-3.26-2.37c-.33-.24-.62-.71-1.08-.55-.64.22-.37.84-.37,1.29-.07,3.26-.1,6.51-.15,9.77-.26.08-.6.13-.5.5,0,.13.32.2.49.3a2.59,2.59,0,0,1,0,1.76c-.8-1.07-1.62-1.47-2.58-.16-.19.26-.58.37-.88.55-.4-5.2-.08-10.4-.18-15.6,0-.82.25-1.72-.54-2.39-1.59-1.36-3.17-2.74-5.19-4.51v29.37c-.29-.21-.57-.4-.51-.84.46-3.32.1-6.66.19-10,0-.08-.12-.16-.21-.27-.43.39.11,1.21-.79,1.47-.94-1.06,1.9-4.65-2.21-3.62,0-5.28-.47-10.6,0-15.83.42-4.75-3-6.57-5.76-9.79,0,4.37,0,8.13,0,11.88q0,16.5-.08,33c-.57-.69-.29-1.51-.32-2.27-.21-4.83.42-9.69-.42-14.51-.09-.54.33-1.48-.71-1.41-.86.05-1.08.78-1,1.59s.13,1.66-1.08,1.64c0-.71-.12-1.42-.12-2.13,0-8.64-.09-17.28.06-25.91.07-3.84.14-7.54-3.06-10.35C548.73,242.75,548.73,242.66,548.7,242.59Zm5.84,28.69a6.78,6.78,0,0,0-.08,3.45A6.7,6.7,0,0,0,554.54,271.29Z" transform="translate(-108.87 -27.79)"/><path class="cls-3" d="M488.5,303.8c-1.23.07-2.49.31-3.65-.34V250.33c-1.7,1.83-2.88,3.26-4.24,4.5a5.31,5.31,0,0,0-1.71,4.35c.08,14.76.07,29.53.09,44.3-1.18.18-2.37.79-3.55,0l.06-38.15c.25-1,1.25-2,0-3l-.06-1.73c1-1.76,1.19-3.4-.69-4.73l.86-.78c.69-.27,1.59-.33,1.41-1.44v0c.48,0,.57-.36.56-.75A156.68,156.68,0,0,0,499,224.15c2.26-.58,2.25-2.33,2.15-4.13a150.75,150.75,0,0,0,12.1-31.45c.29-1.16.76-2.28,1.15-3.42h0q0,7,0,14c-.76.44-.83,1.28-1.1,2-1.22,3.09-2.4,6.2-3.58,9.31-.87,2.3-2.29,4.39-2.67,6.88a23.68,23.68,0,0,0-3.41,6.53c-1.76.4-1.45,2.17-2.16,3.27-1.36,2.12-2.57,4.33-3.84,6.5-1.53,2-3.09,4-3,6.73,0,0-.25.08-.38.12l-.21-1.74c-1.51,1.94-2.76,3.73-4.21,5.36a7.25,7.25,0,0,0-1.63,5.27c.08,17.24.06,34.47.09,51.71C488.38,301.95,488.46,302.87,488.5,303.8Z" transform="translate(-108.87 -27.79)"/><path class="cls-2" d="M249.66,184.66c1-1,5.69-1.76,7-1.14.69.33.57.92.58,1.46,0,13.4,0,26.81,0,40.21,0,1.27-.54,1.58-1.67,1.55-2-.05-4,0-6,0l-.12-27.29.05-13.42Z" transform="translate(-108.87 -27.79)"/><path class="cls-2" d="M512.27,364.33c.24,1.15,1.17.84,1.89.84,2.92,0,5.85,0,8.77,0,3.71,0,5.63,1.92,5.64,5.62,0,2.71,0,5.42,0,8.13-4.91.47-9.83.15-14.75.17-2.25,0-5.16,1-6.59-.44s-.25-4.22-.39-6.41c-.23-3.7.86-6.47,4.92-7.27C512,365,512.1,364.56,512.27,364.33Z" transform="translate(-108.87 -27.79)"/><path class="cls-2" d="M247.53,365.1l11.3.09a4.73,4.73,0,0,1,4.84,4.79c0,3,0,6,0,9-4.62.48-9.26.09-13.89.2-2,0-4,0-6,0-1.23,0-1.85-.24-1.8-1.63.09-2.28,0-4.57,0-6.85C242.14,367.33,244.12,365.38,247.53,365.1Z" transform="translate(-108.87 -27.79)"/><path class="cls-3" d="M249.52,186l-.05,13.42c-1.65,4.15-3.34,8.28-4.92,12.45-.85,2.25-2.45,4.19-2.7,6.68a18.51,18.51,0,0,0-3.46,6.36c-.73.31-.9,1-1.27,1.64-1.46,2.34-2.94,4.66-4.42,7a45.3,45.3,0,0,1-4.61,6.44c-1.07,2.7-3.39,4.5-4.91,6.88-1.59,1.23-2.47,3-3.65,4.58-1.13.45-1.65,1.62-2.63,2.25-.16-1.33-2.14-1.33-2.07-2.83a150.88,150.88,0,0,0,18-24.24,141.67,141.67,0,0,0,13.79-31.09C247.54,192.38,248.54,189.21,249.52,186ZM217.11,251.9a.57.57,0,0,0-.06.18s.09,0,.14.05a.56.56,0,0,0,.05-.18S217.16,251.91,217.11,251.9Z" transform="translate(-108.87 -27.79)"/><path class="cls-2" d="M255.56,140.84c1.24,1.45,1.26,3.16,1.25,5q-.05,14.93,0,29.87c0,1.48-.48,2.93-.14,4.42a.91.91,0,0,1-.4.92c-1,.8-4.69.13-5.49-1q.07-17.59.15-35.18C251,141,251.63,140.43,255.56,140.84Z" transform="translate(-108.87 -27.79)"/><path class="cls-2" d="M520.46,140.77a10.67,10.67,0,0,1,.85,4.77c.1,9.42-.23,18.84.13,28.26.08,2-.11,4-.14,6,0,1.1-.38,1.57-1.5,1.51-1.57-.09-3.31.45-4.43-1.25.82-4.24.39-8.53.43-12.79.07-7.42,0-14.84,0-22.26C515.84,140.88,516.37,140.42,520.46,140.77Z" transform="translate(-108.87 -27.79)"/><path class="cls-3" d="M247.66,303.53q.06,7.57.12,15.13a2.32,2.32,0,0,1-.95,2l-2.39,0c-1-1.51-.26-3.22-.52-4.81h0c.06,0,.18,0,.18-.07a1.78,1.78,0,0,0,0-.34L244,312l0-8.13Z" transform="translate(-108.87 -27.79)"/><path class="cls-3" d="M512.21,303.68q0,7.74.08,15.48c0,.57,0,1.14-.52,1.52l-2.91,0,0-4.81,0-3.81q0-3.2,0-6.4c0-.78-.11-1.62,1-1.82h1.31Z" transform="translate(-108.87 -27.79)"/><path class="cls-3" d="M646,295.76c1.19.16,2.48-.47,3.56.48l0,.72,0,.6q0,.32,0,.64t0,.64l0,4.59c-1.19-.38-2.38.92-3.56,0Z" transform="translate(-108.87 -27.79)"/><path class="cls-3" d="M125.55,298.84c.32-3.39.67-3.65,3.5-2.67l0,7.24c-1.18-.13-2.56,1.25-3.53-.46Q125.56,300.89,125.55,298.84Z" transform="translate(-108.87 -27.79)"/><path class="cls-3" d="M646.41,315.89c-.85,0-1.7-.06-2.55,0-1.43.13-2.21-.15-2.19-1.9,0-1.6.5-2.2,2.08-2a21.61,21.61,0,0,0,2.55,0Z" transform="translate(-108.87 -27.79)"/><path class="cls-3" d="M128.77,312a25.07,25.07,0,0,0,2.74,0c1.56-.17,1.88.56,1.88,2s-.36,2.14-1.89,1.94c-.89-.12-1.84.22-2.65-.41Z" transform="translate(-108.87 -27.79)"/><path class="cls-2" d="M501.19,220c.1,1.8.1,3.56-2.15,4.13C499.38,222.58,500.46,221.39,501.19,220Z" transform="translate(-108.87 -27.79)"/><path class="cls-2" d="M477,253.61c.18,1.11-.72,1.17-1.41,1.44A2.07,2.07,0,0,1,477,253.61Z" transform="translate(-108.87 -27.79)"/><path class="cls-2" d="M530.55,379h2A2.38,2.38,0,0,1,530.55,379Z" transform="translate(-108.87 -27.79)"/><path class="cls-2" d="M262.61,322.72a.84.84,0,0,1,0-1.21Z" transform="translate(-108.87 -27.79)"/><path class="cls-2" d="M527.3,322.32l0-1.2Z" transform="translate(-108.87 -27.79)"/><path class="cls-2" d="M477.55,252.88c0,.39-.07.72-.56.75A.84.84,0,0,1,477.55,252.88Z" transform="translate(-108.87 -27.79)"/><path class="cls-2" d="M649.52,297.56l0-.6A.38.38,0,0,1,649.52,297.56Z" transform="translate(-108.87 -27.79)"/><path class="cls-2" d="M527.72,320.74l.56-.06Z" transform="translate(-108.87 -27.79)"/><path class="cls-2" d="M266.95,379h.74A.49.49,0,0,1,266.95,379Z" transform="translate(-108.87 -27.79)"/><path class="cls-2" d="M522.54,141h-.18l-.16-.08A.2.2,0,0,1,522.54,141Z" transform="translate(-108.87 -27.79)"/><path class="cls-2" d="M649.52,298.84q0-.32,0-.64A.42.42,0,0,1,649.52,298.84Z" transform="translate(-108.87 -27.79)"/><path class="cls-1" d="M512.21,303.68l-1.08.12a.47.47,0,0,0-.69,0h-.62l-2.65-.36-.06-26.56c0-.78.09-1.56.09-2.34q0-21.9,0-43.8c0-4.48-.06-9-.09-13.45.38-2.49,1.8-4.58,2.67-6.88,1.17-3.11,2.35-6.22,3.58-9.31.27-.69.34-1.54,1.1-2l0,27.6-.28,2.06c-1.68.2-1.93,1.4-1.93,2.77q0,22.26,0,44.52Q512.26,289.88,512.21,303.68Z" transform="translate(-108.87 -27.79)"/><path class="cls-1" d="M497.68,233.58c1.27-2.17,2.49-4.38,3.84-6.5.7-1.1.4-2.88,2.16-3.27q0,22.89,0,45.78c0,6.5,0,13-.08,19.49,0,4.92-.1,9.85-.15,14.77-1.89-.35-3.84.25-5.71-.36q0-3.84,0-7.69,0-20.81-.1-41.63C497.87,247.31,497.86,240.45,497.68,233.58Z" transform="translate(-108.87 -27.79)"/><path class="cls-1" d="M271.81,224.58c1.66,2,2.73,4.36,4.12,6.52.45.71,1,1.37,1.45,2.06a8.56,8.56,0,0,1,.29,3.15q0,15.46,0,30.91c0,.78.08,1.55.12,2.33q0,6.92-.09,13.85-.07,10.23-.14,20.45c-1.89-.41-3.85.28-5.72-.4l-.06-32.56Q271.78,247.74,271.81,224.58Z" transform="translate(-108.87 -27.79)"/><path class="cls-1" d="M488.5,303.8c0-.92-.12-1.85-.12-2.77,0-17.24,0-34.47-.09-51.71a7.25,7.25,0,0,1,1.63-5.27c1.44-1.63,2.7-3.42,4.21-5.36l.21,1.74c-.2,5-.18,10,0,15q0,24-.08,48C492.36,304.1,490.4,303.53,488.5,303.8Z" transform="translate(-108.87 -27.79)"/><path class="cls-1" d="M281.18,284.58q0-18,.07-36c0-2.91,0-5.82,0-9.31a85,85,0,0,1,5.39,7c.93,1.51.3,3.49.4,5.25.14,2.27.1,4.55.14,6.83q-.06,17.68-.11,35.36c0,3.35-.08,6.71-.12,10.06h-5.56Z" transform="translate(-108.87 -27.79)"/><path class="cls-1" d="M479,303.48c0-14.77,0-29.53-.09-44.3a5.31,5.31,0,0,1,1.71-4.35c1.35-1.24,2.54-2.68,4.24-4.5v53.12A12.73,12.73,0,0,1,479,303.48Z" transform="translate(-108.87 -27.79)"/><path class="cls-1" d="M290.58,263.18v-12a39.88,39.88,0,0,1,6,6.52q0,22.37-.05,44.75c-.22.71-.5,1.29-1.44,1.21-1.48-.12-3,.22-4.45-.18Z" transform="translate(-108.87 -27.79)"/><path class="cls-1" d="M475.49,265.3l-.06,38.15c-1.87.71-3.84,0-5.73.38,0-1-.13-2-.14-3q-.07-16.49-.12-33a.33.33,0,0,0,0-.4v-1.75a29.2,29.2,0,0,1,6-5.15l.06,1.73Z" transform="translate(-108.87 -27.79)"/><path class="cls-1" d="M300,271.29V261.2l.56-.2c1.7,1.85,3.87,3.16,5.42,5.17l0,1.12a.75.75,0,0,0,0,1l-.09,35.28a25.79,25.79,0,0,1-6.2-.07c.16-1.72-.31-3.48.37-5.16l0-24Q300,272.8,300,271.29Z" transform="translate(-108.87 -27.79)"/><path class="cls-1" d="M466,303.45c-1.87.73-3.84,0-5.74.39-.05-1.2-.14-2.41-.14-3.61q-.05-13.41-.08-26.81c.65-1.36,2.42-2.84,6-4.92v6.66q0,1.51,0,3,0,1.71,0,3.41t0,3.45v.84Z" transform="translate(-108.87 -27.79)"/><path class="cls-1" d="M315.31,303.54c-1.82.52-3.7,0-5.54.31-.05-.92-.15-1.84-.15-2.77q0-15.93-.05-31.85a13.64,13.64,0,0,1,5.81,4.25v1.3C315.13,284.36,315.17,293.95,315.31,303.54Z" transform="translate(-108.87 -27.79)"/><path class="cls-1" d="M450.65,279c1.48-1.82,3.82-2.3,6-4.24V295.3l0,8.16a11.16,11.16,0,0,1-5.9-.14q0-11.29,0-22.58a.59.59,0,0,0,0-.89Z" transform="translate(-108.87 -27.79)"/><path class="cls-3" d="M494.24,303.45q0-24,.08-48c.69-.08,1.63,1.42,2-.58.32,1-.18,1.89.61,2.57.84-1.06-.12-2.38.79-3.27q0,20.81.1,41.63,0,3.84,0,7.69C496.61,303.36,495.41,304,494.24,303.45Zm1.44-38.17h.17v-7.14h-.17Z" transform="translate(-108.87 -27.79)"/><path class="cls-3" d="M290.58,263.18l.07,40.28c-1.23.1-2.42.63-3.69.38,0-3.35.11-6.71.12-10.06q.07-17.68.11-35.36c2,.28,2.49,1.89,2.73,3.51C290,262.51,289.78,263.05,290.58,263.18Z" transform="translate(-108.87 -27.79)"/><path class="cls-1" d="M319,276c1.7-.28,2.53,1.38,3.94,1.76,2.07.56,1.58,2.35,1.86,3.77q0,6.91,0,13.82c0,2.2-.19,4.4-.11,6.6,0,1.4-.36,1.93-1.79,1.81a33.62,33.62,0,0,0-3.62.07c-.05-1.21-.15-2.42-.15-3.63Q319,288.11,319,276Z" transform="translate(-108.87 -27.79)"/><path class="cls-3" d="M309.57,269.23q0,15.93.05,31.85c0,.92.1,1.84.15,2.77-1.3-.08-2.65.33-3.91-.32q0-17.64.09-35.28l0-1,0-1.12C307,267.4,307.85,268.83,309.57,269.23Z" transform="translate(-108.87 -27.79)"/><path class="cls-3" d="M300,298.3c-.68,1.68-.21,3.44-.37,5.16-1.34.54-2.71,1.19-3.13-1q0-22.37.05-44.75c1.33.72-.12,2.13.74,3,.81.11.4-1.43,1.26-1a2,2,0,0,1,1.08,1.93c-.06,2.57,0,5.14,0,7.7,0,.69-.22,1.44.33,2.05v3a1.79,1.79,0,0,0-.33,1.41q0,10.59,0,21.18A1.68,1.68,0,0,0,300,298.3Z" transform="translate(-108.87 -27.79)"/><path class="cls-1" d="M447.21,302.18c0,1-.33,1.58-1.49,1.5a12.83,12.83,0,0,0-2.72.09c-1.26.18-1.54-.58-1.7-1.54.14-5.76.2-11.52,0-17.28.42-1.47,4.26-4.1,5.74-3.9.1,0,.16.36.24.55Q447.22,291.89,447.21,302.18Z" transform="translate(-108.87 -27.79)"/><path class="cls-1" d="M334.1,302.62c-.09.87-.55,1.16-1.44,1.13-1.35-.05-2.7.05-4.06.09-.05-.78-.15-1.55-.15-2.33q0-10.15,0-20.3a1.12,1.12,0,0,1,.21,0c3.69,1,6.31,2.77,5.48,7.19q0,5.17,0,10.34a7.92,7.92,0,0,0,0,3Z" transform="translate(-108.87 -27.79)"/><path class="cls-3" d="M319,276q0,12.1.09,24.2c0,1.21.1,2.42.15,3.63-1.32.3-2.57-.44-3.88-.31-.15-9.59-.18-19.18.05-28.76l.33-.17-.32-.34v-.79A7.93,7.93,0,0,1,319,276Z" transform="translate(-108.87 -27.79)"/><path class="cls-3" d="M466.05,278.17q0-1.51,0-3c.85-1.35,1-3,2-4.31.88-1.07-1.27-.77-.81-1.69h0c.49.47,1-1.83,1.49,0,.43-.33.06-1.09.68-1.32q.06,16.49.12,33c0,1,.09,2,.14,3-1.24,0-2.51.31-3.68-.39l0-17.58c.38-.28.38-.56,0-.84q0-1.72,0-3.45A3.67,3.67,0,0,0,466.05,278.17Z" transform="translate(-108.87 -27.79)"/><path class="cls-3" d="M271.75,270.9l.06,32.56c-1.11.63-2.31.39-3.49.37l-.15-.14q.06-8.2.11-16.4c0-4.75.1-9.51.16-14.26.51.14.92-1.57,1.46-.14.87,2.32.57,4.78.63,7.19,0,.44-.19,1,.59,1.29.46-1.64.09-3.25.24-4.83C271.55,274.66,270.9,272.73,271.75,270.9Z" transform="translate(-108.87 -27.79)"/><path class="cls-1" d="M437.79,287.18c0,4.77-.19,9.55-.05,14.32.06,2-.6,2.55-2.41,2.27a5.53,5.53,0,0,0-1.71,0c-1.28.21-1.6-.52-1.69-1.55V288.42a1.73,1.73,0,0,1,1.34-1.4c1.49-.52,3-1.08,4.45-1.62l.09.48,0,.42Z" transform="translate(-108.87 -27.79)"/><path class="cls-1" d="M343.52,302.62c-.17.5-.14,1.16-1,1.1-1.57-.11-3.18.35-4.71-.32l0-17.51c2.08.63,4.65.33,5.69,3Z" transform="translate(-108.87 -27.79)"/><path class="cls-3" d="M503.5,303.85c.05-4.92.12-9.85.15-14.77,0-6.5.05-13,.08-19.49.37.38,1,.71.83,1.3-1,3.3-.16,6.53.46,9.79v-8.91c.46,3.26.23,6.54,1.25,10.27,0-1.39-.06-2.24,0-3.08s-.49-1.81.83-2.08l.06,26.56C506,304.13,504.73,303.81,503.5,303.85Z" transform="translate(-108.87 -27.79)"/><path class="cls-3" d="M456.58,303.46l0-8.16c.59-.68.34-1.49.34-2.25,0-4.61-.08-9.23.07-13.83.08-2.31-.23-5.06,3-5.81q0,13.41.08,26.81c0,1.2.09,2.41.14,3.61A8.72,8.72,0,0,1,456.58,303.46Z" transform="translate(-108.87 -27.79)"/><path class="cls-3" d="M281.18,284.58l.21,19.26c-1.28.26-2.57-.73-3.86,0q.07-10.23.14-20.45,0-6.92.09-13.85c1,1.42.3,3,.47,4.53.1.84-.13,1.85.66,2.36,2.36,1.53,1.9,3.86,1.94,6.09C280.84,283.23,280.61,284,281.18,284.58Z" transform="translate(-108.87 -27.79)"/><path class="cls-3" d="M328.42,281.22q0,10.15,0,20.3c0,.78.1,1.55.15,2.33-4.41.07-3.5.28-3.65-3.49-.06-1.67.33-3.36-.24-5q0-6.91,0-13.82C325.27,279.09,325.51,279.07,328.42,281.22Z" transform="translate(-108.87 -27.79)"/><path class="cls-3" d="M447.21,302.18q0-10.29,0-20.59a5.54,5.54,0,0,1,3.42-2.56v.82a.87.87,0,0,0-.51.88l-.1.16.09-.17.52,0q0,11.29,0,22.58C448.6,304.36,448,304.16,447.21,302.18Z" transform="translate(-108.87 -27.79)"/><path class="cls-1" d="M428.37,289.77c0,4-.14,8-.06,11.94,0,1.53-.3,2.12-2,2.08-3.66-.09-3.66,0-3.66-3.57,0-2.49.11-5,0-7.47a2.26,2.26,0,0,1,2-2.67c1.23-.34,2.43-.8,3.64-1.2Z" transform="translate(-108.87 -27.79)"/><path class="cls-1" d="M347.28,289.36c2.05.5,4.36.41,5.73,2.48-.33,4,.2,8-.3,12a27.15,27.15,0,0,0-5.3,0Z" transform="translate(-108.87 -27.79)"/><path class="cls-3" d="M337.83,285.9l0,17.51c-1.48.84-2.79.83-3.76-.78v-.91a3.49,3.49,0,0,0,0-3q0-5.17,0-10.34a3.65,3.65,0,0,0,.26-2.46c-.12-1.78.55-1.95,1.88-1.08Z" transform="translate(-108.87 -27.79)"/><path class="cls-3" d="M437.79,287.18v-.88s.14-.09.14-.12a1.78,1.78,0,0,0-.12-.31l-.09-.48c1.13-.55,2.11-2.21,3.53-.46.24,5.76.18,11.52,0,17.28-.37.61,0,1.91-1.4,1.6-1.13-.24-1.86-.62-1.82-2.07.11-4.18.05-8.36,0-12.54C438.11,288.53,438.33,287.79,437.79,287.18Z" transform="translate(-108.87 -27.79)"/><path class="cls-1" d="M413.13,295.32c-.15-1.8.59-2.68,2.48-2.75a18,18,0,0,0,3.27-.71l.11,6.88a.31.31,0,0,0,0,.4v.91c-.35,3.74-.36,3.61-3.79,3.74-1.69.06-2.08-.65-2.08-2Q413.12,298.54,413.13,295.32Z" transform="translate(-108.87 -27.79)"/><path class="cls-1" d="M362.38,298.76c-.47,1.6.73,3.81-.62,4.74-1.11.77-3.11.25-4.72.3a1.18,1.18,0,0,0-.21,0l-.09-11.95a18.55,18.55,0,0,0,3.27.79c1.74.11,2.49.91,2.37,2.61Z" transform="translate(-108.87 -27.79)"/><path class="cls-3" d="M347.28,289.36l.13,14.49c-1.4-.08-3,.61-3.89-1.22V288.87C345,287.36,346.07,288.89,347.28,289.36Z" transform="translate(-108.87 -27.79)"/><path class="cls-1" d="M409.54,303.43c-1.82.7-3.73.05-5.57.41l-.22-.82v-7.7c1.67-1.5,3.82-.91,5.75-1.32l.1,8.17v.42Z" transform="translate(-108.87 -27.79)"/><path class="cls-1" d="M366,295.31c0-.21,0-.49.11-.61,1.43-1.4,2.94.16,4.44-.1.89-.15,1.09.63,1.1,1.43,0,1.9.06,3.8.09,5.7l0,.9c-.08.85-.52,1.14-1.38,1.12-1.38,0-2.77.06-4.16.1L366,302.6v-7.29Z" transform="translate(-108.87 -27.79)"/><path class="cls-3" d="M428.37,289.77l-.14-.88c1.25,0,2.33-1.39,3.7-.46q0,6.89,0,13.79c-.52.46.13,2-1.42,1.53-1-.29-1.93-.44-1.87-2,.14-3.32.06-6.64,0-10C428.68,291.12,428.91,290.38,428.37,289.77Z" transform="translate(-108.87 -27.79)"/><path class="cls-3" d="M356.74,291.9l.09,11.95h-4.12c.5-4,0-8,.3-12C354.28,290.37,355.5,291.93,356.74,291.9Z" transform="translate(-108.87 -27.79)"/><path class="cls-1" d="M400,303.47a11.47,11.47,0,0,1-5.63,0l0-2.14q0-.85,0-1.71v-1.73q0-.43,0-.85v-.43l.08-.86,5.58-.41Z" transform="translate(-108.87 -27.79)"/><path class="cls-1" d="M375.47,298.73c.25-3.49.25-3.48,3.94-3.11.56.06,1.12.08,1.69.12l0,7.71c-1.55.63-3.17.16-4.75.29-.84.07-.77-.63-.92-1.13Q375.47,300.67,375.47,298.73Z" transform="translate(-108.87 -27.79)"/><path class="cls-1" d="M385,295.76c1.85.29,3.77-.48,5.57.42q0,3.63,0,7.26a10.6,10.6,0,0,1-5.67,0Z" transform="translate(-108.87 -27.79)"/><path class="cls-3" d="M419,300.06v-.91s.13-.09.12-.11a1.75,1.75,0,0,0-.13-.29l-.11-6.88c3.36-1.19,3.36-1.19,3.36,2.42,0,2.62,0,5.24,0,7.86,0,1-.08,1.8-1.44,1.74s-1.55-.69-1.55-1.78C419.27,301.43,419.48,300.69,419,300.06Z" transform="translate(-108.87 -27.79)"/><path class="cls-3" d="M409.54,303.43l0-.84s.13-.09.12-.12a1.74,1.74,0,0,0-.12-.3l-.1-8.17c2.76-1.11,2.76-1.11,3.65,1.32q0,3.22,0,6.44C412.93,304.47,411,303.4,409.54,303.43Z" transform="translate(-108.87 -27.79)"/><path class="cls-3" d="M366,295.31v6.86s-.14.1-.13.13a1.8,1.8,0,0,0,.14.31l.21,1.24a10,10,0,0,0-1.25,0c-1.8.28-2.57-.37-2.36-2.28a4.08,4.08,0,0,0-.26-2.84V295.3c.43-.75.31-1.81,1.81-1.79S365.57,294.57,366,295.31Z" transform="translate(-108.87 -27.79)"/><path class="cls-3" d="M400,303.47l0-8.15c1.26-.9,2.52-.36,3.78,0v2.14a.79.79,0,0,0,0,1.27v3.44c-.37.29-.36.57,0,.85l.22.82Z" transform="translate(-108.87 -27.79)"/><path class="cls-3" d="M385,295.76l-.09,7.7c-1.26-.21-2.53,1-3.79,0l0-7.71A10.92,10.92,0,0,1,385,295.76Z" transform="translate(-108.87 -27.79)"/><path class="cls-3" d="M390.61,303.44q0-3.63,0-7.26c1.19-.77,2.52-.31,3.78-.44l-.08.86s-.14.1-.14.12a1.86,1.86,0,0,0,.14.31v.85s-.14.09-.14.12a1.8,1.8,0,0,0,.13.31q0,.65,0,1.3c-.29.57-1.45,1.14,0,1.71l0,2.14C393.1,304.15,391.85,303.72,390.61,303.44Z" transform="translate(-108.87 -27.79)"/><path class="cls-3" d="M375.47,298.73q0,1.94,0,3.87c-.91,1.49-2.09,1.49-3.67,0l0-.9c.68-1.71.14-3.49.33-5.22.07-.63-.27-1.71.87-1.47.8.16,2.15-.13,2.15,1.46C375.13,297.24,374.88,298.06,375.47,298.73Z" transform="translate(-108.87 -27.79)"/><path class="cls-3" d="M376,312c1.63-.88,3.26-.23,4.89,0q0,1.91,0,3.83l-4.93.05Z" transform="translate(-108.87 -27.79)"/><path class="cls-3" d="M394,312.45c1.46-1.4,3.1-.79,4.72-.41l0,3.83c-1.64-.53-3.3.39-4.95,0Z" transform="translate(-108.87 -27.79)"/><path class="cls-3" d="M411.52,312l5-.29a15.19,15.19,0,0,0-.18,4.13l-4.88,0Z" transform="translate(-108.87 -27.79)"/><path class="cls-3" d="M310.07,315.85l-4.9,0a18.37,18.37,0,0,0-.13-4.18,10.76,10.76,0,0,0,5.22,0A14.22,14.22,0,0,0,310.07,315.85Z" transform="translate(-108.87 -27.79)"/><path class="cls-3" d="M278.65,312a24.23,24.23,0,0,1,4.81.1l0,3.72-4.9,0Z" transform="translate(-108.87 -27.79)"/><path class="cls-3" d="M287.56,312.17a26.46,26.46,0,0,1,4.85-.14l0,3.84-4.94,0Z" transform="translate(-108.87 -27.79)"/><path class="cls-3" d="M314.12,312.05H319l0,3.81-4.94,0Z" transform="translate(-108.87 -27.79)"/><path class="cls-3" d="M331.8,312l4.79.09.05,3.73-4.87,0Z" transform="translate(-108.87 -27.79)"/><path class="cls-3" d="M367.24,312.05h4.89l0,3.81-4.95,0Z" transform="translate(-108.87 -27.79)"/><path class="cls-3" d="M505.07,315.86l-5,0q0-1.91,0-3.83L505,312Z" transform="translate(-108.87 -27.79)"/><path class="cls-3" d="M491.26,312l4.81.11.05,3.71-4.9,0Z" transform="translate(-108.87 -27.79)"/><path class="cls-3" d="M473.54,312.06h4.9l0,3.81-5,0Z" transform="translate(-108.87 -27.79)"/><path class="cls-1" d="M496.12,315.84l-.05-3.71a7.39,7.39,0,0,1,4-.14q0,1.91,0,3.83Z" transform="translate(-108.87 -27.79)"/><path class="cls-1" d="M460.56,312.06a8.8,8.8,0,0,1,4.11,0l0,3.86-4,0Z" transform="translate(-108.87 -27.79)"/><path class="cls-3" d="M340.69,312.07l4.86,0,0,3.84-4.91,0Z" transform="translate(-108.87 -27.79)"/><path class="cls-3" d="M358.37,312l4.83,0,0,3.81-4.87,0Z" transform="translate(-108.87 -27.79)"/><path class="cls-3" d="M464.64,315.87l0-3.86,4.83,0,0,3.8Z" transform="translate(-108.87 -27.79)"/><path class="cls-3" d="M451.89,315.87l-4.94,0,0-3.78,4.86,0Z" transform="translate(-108.87 -27.79)"/><path class="cls-3" d="M442.94,315.85l-4.87,0,0-3.84h4.81Z" transform="translate(-108.87 -27.79)"/><path class="cls-1" d="M358.37,312l0,3.86-4,0-.06-3.79A8.86,8.86,0,0,1,358.37,312Z" transform="translate(-108.87 -27.79)"/><path class="cls-3" d="M420.37,312.06l4.92,0,0,3.83-5,0Q420.37,313.94,420.37,312.06Z" transform="translate(-108.87 -27.79)"/><path class="cls-3" d="M389.8,315.85l-4.88,0,.1-3.42a8.35,8.35,0,0,1,4.74-.33Z" transform="translate(-108.87 -27.79)"/><path class="cls-1" d="M314.12,312.05l0,3.78h-4a14.22,14.22,0,0,1,.19-4.12C311.54,312,312.87,311.57,314.12,312.05Z" transform="translate(-108.87 -27.79)"/><path class="cls-1" d="M420.37,312.06q0,1.88,0,3.76l-4,0a15.19,15.19,0,0,1,.18-4.13C417.81,312,419.13,311.55,420.37,312.06Z" transform="translate(-108.87 -27.79)"/><path class="cls-1" d="M469.54,315.84l0-3.8a7.81,7.81,0,0,1,4,0l0,3.76Z" transform="translate(-108.87 -27.79)"/><path class="cls-3" d="M482.35,312.45c1.55-.83,3.2-.33,4.81-.37q0,1.87,0,3.75l-4.93.06Z" transform="translate(-108.87 -27.79)"/><path class="cls-1" d="M411.52,312l0,3.85-4.06,0-.08-3.8A9.64,9.64,0,0,1,411.52,312Z" transform="translate(-108.87 -27.79)"/><path class="cls-1" d="M385,312.45l-.1,3.42-4,0q0-1.91,0-3.83C382.29,311.79,383.73,311.38,385,312.45Z" transform="translate(-108.87 -27.79)"/><path class="cls-1" d="M287.56,312.17l0,3.66h-4l0-3.72A5.78,5.78,0,0,1,287.56,312.17Z" transform="translate(-108.87 -27.79)"/><path class="cls-1" d="M363.22,315.85l0-3.81a7.84,7.84,0,0,1,4,0q0,1.89,0,3.78Z" transform="translate(-108.87 -27.79)"/><path class="cls-1" d="M442.94,315.85l0-3.81a8.48,8.48,0,0,1,4.08,0l0,3.78Z" transform="translate(-108.87 -27.79)"/><path class="cls-1" d="M305,311.68a18.37,18.37,0,0,1,.13,4.18l-4,0-.07-3.8Z" transform="translate(-108.87 -27.79)"/><path class="cls-1" d="M389.8,315.85l0-3.73c1.43-.17,2.9-.86,4.23.33l-.19,3.38Z" transform="translate(-108.87 -27.79)"/><path class="cls-3" d="M269.75,312.45c1.54-.85,3.19-.32,4.79-.4q0,1.89,0,3.77c-1.61-.05-3.26.46-4.81-.38Z" transform="translate(-108.87 -27.79)"/><path class="cls-1" d="M274.55,315.83q0-1.89,0-3.77a9.47,9.47,0,0,1,4.11,0l0,3.83Z" transform="translate(-108.87 -27.79)"/><path class="cls-3" d="M354.24,312.06l.06,3.79c-1.61-.09-3.28.45-4.83-.39q0-1.28,0-2.56C350.82,311.2,352.65,312.31,354.24,312.06Z" transform="translate(-108.87 -27.79)"/><path class="cls-3" d="M407.35,312l.08,3.8c-1.61-.09-3.27.45-4.82-.39v-2.57C404,311.22,405.77,312.31,407.35,312Z" transform="translate(-108.87 -27.79)"/><path class="cls-1" d="M340.69,312.07v3.77h-4l-.05-3.73A7.48,7.48,0,0,1,340.69,312.07Z" transform="translate(-108.87 -27.79)"/><path class="cls-3" d="M460.56,312.06l.06,3.79a19.93,19.93,0,0,0-2.33.06c-1.82.25-2.35-.55-2.22-2.27.08-1.12.32-1.65,1.56-1.68A22.54,22.54,0,0,1,460.56,312.06Z" transform="translate(-108.87 -27.79)"/><path class="cls-1" d="M487.18,315.82q0-1.87,0-3.75a13.89,13.89,0,0,1,4.1,0l0,3.84Z" transform="translate(-108.87 -27.79)"/><path class="cls-1" d="M438.11,312l0,3.84-4.06,0q0-1.89,0-3.79A15.46,15.46,0,0,1,438.11,312Z" transform="translate(-108.87 -27.79)"/><path class="cls-3" d="M434,312.06q0,1.89,0,3.79a24.26,24.26,0,0,0-2.53.06c-1.64.2-2-.53-2-2.06,0-1.31.34-2,1.78-1.86C432.17,312.08,433.09,312,434,312.06Z" transform="translate(-108.87 -27.79)"/><path class="cls-1" d="M331.8,312l0,3.84-4.05,0q0-1.89,0-3.78A16.27,16.27,0,0,1,331.8,312Z" transform="translate(-108.87 -27.79)"/><path class="cls-3" d="M327.71,312.06q0,1.89,0,3.78a24.35,24.35,0,0,0-2.53.07c-1.64.2-2-.53-2-2.06,0-1.31.33-2,1.78-1.86C325.87,312.09,326.79,312,327.71,312.06Z" transform="translate(-108.87 -27.79)"/><path class="cls-3" d="M301.06,312l.07,3.8c-.78,0-1.57,0-2.34.06-1.45.14-2.27-.16-2.18-1.92.07-1.38.3-2.19,1.9-2A24.42,24.42,0,0,0,301.06,312Z" transform="translate(-108.87 -27.79)"/><path class="cls-1" d="M319,315.87l0-3.81a11.17,11.17,0,0,1,1.7-.12c.67,0,1.71-.37,1.93.4a8.53,8.53,0,0,1,.08,3.17c0,.49-.7.37-1.11.38C320.73,315.9,319.88,315.88,319,315.87Z" transform="translate(-108.87 -27.79)"/><path class="cls-1" d="M505.07,315.86,505,312a13.8,13.8,0,0,1,3.82,0q0,1.9,0,3.81Z" transform="translate(-108.87 -27.79)"/><path class="cls-1" d="M482.35,312.45l-.1,3.43h-3.76l0-3.81C479.76,312,481.14,311.44,482.35,312.45Z" transform="translate(-108.87 -27.79)"/><path class="cls-1" d="M349.47,312.89q0,1.28,0,2.56c-1.21.92-2.59.24-3.88.42l0-3.84C346.86,312.3,348.52,311,349.47,312.89Z" transform="translate(-108.87 -27.79)"/><path class="cls-1" d="M372.17,315.86l0-3.81,3.84,0,0,3.87Z" transform="translate(-108.87 -27.79)"/><path class="cls-1" d="M402.62,312.89v2.57c-1.21.93-2.59.21-3.88.42l0-3.83C400,312.27,401.68,310.92,402.62,312.89Z" transform="translate(-108.87 -27.79)"/><path class="cls-1" d="M451.89,315.87l0-3.84c.49,0,1-.09,1.47-.1,2.12,0,3.16,1.55,2.33,3.46-.28.63-.78.48-1.23.49C453.58,315.91,452.73,315.88,451.89,315.87Z" transform="translate(-108.87 -27.79)"/><path class="cls-1" d="M269.75,312.45v3c-.3.61-.92.34-1.38.51-1.51,0-2.71,0-2.62-2.26.07-1.91,1-1.77,2.21-1.87C268.54,312.06,269.33,311.7,269.75,312.45Z" transform="translate(-108.87 -27.79)"/><path class="cls-1" d="M425.33,315.87l0-3.83a14.15,14.15,0,0,1,1.71-.1c.68,0,1.7-.37,1.93.41a8.53,8.53,0,0,1,.08,3.17c0,.48-.7.37-1.11.37C427,315.89,426.19,315.87,425.33,315.87Z" transform="translate(-108.87 -27.79)"/><path class="cls-1" d="M292.45,315.87l0-3.84c.49,0,1-.1,1.47-.11,2.13,0,3.15,1.51,2.32,3.46-.22.52-.61.5-1,.5C294.27,315.89,293.36,315.87,292.45,315.87Z" transform="translate(-108.87 -27.79)"/><path class="cls-3" d="M467.27,269.16c-.26,0-.68.51-.72-.14,0-.25.34-.53.53-.8l.18.95Z" transform="translate(-108.87 -27.79)"/><path class="cls-3" d="M469.45,265.71v1.75A1,1,0,0,1,469.45,265.71Z" transform="translate(-108.87 -27.79)"/><path class="cls-1" d="M247.66,303.53l-3.73.32h-1.84c0-1.62-.13-3.25-.13-4.88q-.07-21.55-.12-43.1c0-2.7.13-5.39.12-8.09q0-14.6-.12-29.2c.25-2.49,1.85-4.43,2.7-6.68,1.58-4.17,3.28-8.3,4.93-12.45l.12,27.29-.27,2.05c-1.67.24-1.66,1.51-1.66,2.75q0,11.14,0,22.28Q247.66,278.68,247.66,303.53Z" transform="translate(-108.87 -27.79)"/><path class="cls-1" d="M232.69,233.57c1.47-2.33,3-4.66,4.42-7,.37-.59.53-1.33,1.27-1.64l.1,30.1q0,23.56,0,47.12l.12.8-.17.5c-1.6.46-3.22.1-4.83.16-.91,0-.8-.84-1.06-1.37q.31-6.94,0-13.88a6.55,6.55,0,0,0,0-3.53v-3.09a23.59,23.59,0,0,0,0-6.94,65.94,65.94,0,0,0,0-9.46,6,6,0,0,0,.2-2.53Q232.69,248.2,232.69,233.57Z" transform="translate(-108.87 -27.79)"/><path class="cls-1" d="M223.17,246.89c1.51-2.38,3.84-4.18,4.91-6.88,1.61,0,.83,1.25.84,1.86.09,7.82.11,15.64.14,23.45L229,303.47c-.63.06-1.25.16-1.88.17-3.69.09-3.69.08-3.89-3.58q0-16.06-.08-32.13C223.42,260.91,223.34,253.9,223.17,246.89Z" transform="translate(-108.87 -27.79)"/><path class="cls-1" d="M216.89,253.73c1-.63,1.5-1.8,2.63-2.25,0,1,0,2,0,3q0,17,.08,34,0,1.72,0,3.44v4.29q0,1.7,0,3.41v1.74c-.39.73.46,2.29-.89,2.21-1.64-.1-3.65,1.22-4.93-.91V294l0-4.72v-4.71a5.66,5.66,0,0,0,0-2.54l0-15c0-2.26.25-4.54.08-6.79a5.5,5.5,0,0,1,2.24-5.33A4.43,4.43,0,0,0,216.89,253.73Z" transform="translate(-108.87 -27.79)"/><path class="cls-1" d="M210.18,303.49c-5.68.63-5.68.63-5.69-5,0-9.91,0-19.83-.07-29.74,0-2.1.33-3.7,2.19-4.89a37.66,37.66,0,0,0,3.65-3.14c0,5.21,0,9.84,0,14.47q0,3.68,0,7.37V284a19.56,19.56,0,0,0,.09,4.38,6.86,6.86,0,0,0-.09,3.43l0,10.33a.3.3,0,0,0,0,.39Z" transform="translate(-108.87 -27.79)"/><path class="cls-1" d="M195,276.86c-1-3.85,1.88-5.35,4.35-7.07.33-.23.6-.71,1.09-.48s.3.74.31,1.14c.06,3.56.11,7.13.16,10.69l-.08,22.37c-1.45,0-2.91,0-4.35.17-1.21.12-1.37-.61-1.46-1.49V276.86Z" transform="translate(-108.87 -27.79)"/><path class="cls-3" d="M238.41,303.46l.17-.5c.27-.12.51-.31.43-.61,0-.1-.36-.13-.55-.19q0-23.56,0-47.12c.32.08.9.1.94.26.46,1.8,1.47,1,2.42.57q.06,21.55.12,43.1c0,1.63.09,3.25.13,4.88C240.82,304.11,239.66,303.34,238.41,303.46Z" transform="translate(-108.87 -27.79)"/><path class="cls-1" d="M185.54,280.3a2,2,0,0,1,1.3-2.12c1.6-.56,2.61-2.42,4.61-2.14l0,2.19c-.41,5.11-.1,10.23-.18,15.34,0,2.7-.1,5.41,0,8.11.08,1.65-.54,2.18-2.09,2a8.57,8.57,0,0,0-2.13,0c-1.17.15-1.49-.5-1.56-1.47Q185.54,291.24,185.54,280.3Z" transform="translate(-108.87 -27.79)"/><path class="cls-3" d="M229,303.47l.08-38.14c1.15-1.23,2.27.3,3.4,0a66,66,0,0,1,0,9.46,34,34,0,0,0,0,6.94q0,1.54,0,3.09a8.87,8.87,0,0,0,0,3.53q.32,6.94,0,13.88C232.09,304.89,230.41,303.82,229,303.47Z" transform="translate(-108.87 -27.79)"/><path class="cls-1" d="M182,303.48c-5.52,1-5.73.82-5.74-4.69,0-4.21.06-8.41,0-12.62,0-1.65.16-2.86,2-3.4,1.31-.38,2.34-1.6,3.9-1.26Q182,292.5,182,303.48Z" transform="translate(-108.87 -27.79)"/><path class="cls-3" d="M219.6,291.88q0-1.72,0-3.44c.79-4.33.23-8.73.65-13.1.33-3.5.91-7,1.51-10.47v8.27c.94-.93.59-2,.75-3,.12-.76-.52-1.76.61-2.25q0,16.06.08,32.13a2.36,2.36,0,0,0-.5,1.75c0,.71,1,1.91-.81,2-1.31.05-2.23-.06-2-1.72,0-.23-.19-.5-.3-.76v-1.74c1-1.14.36-2.27,0-3.41v-.87A3.89,3.89,0,0,0,219.6,291.88Z" transform="translate(-108.87 -27.79)"/><path class="cls-3" d="M210.24,302.18q0-5.17,0-10.33c.25-1.14.94-2.26.09-3.43a19.51,19.51,0,0,1-.09-4.38c.66.1,1.08-.11,1-.84s-.5-.71-1-.64q0-3.68,0-7.37c1.14-.06,1-.89,1.09-1.69a6.67,6.67,0,0,1,.26-2.89c1.05.52.22,1.6,1,2.17.79-1.11.21-2.39.43-3.54.14-.76-.51-1.77.67-2.21q0,7.49,0,15a2.63,2.63,0,0,0,0,2.54q0,1.72,0,3.45s-.13.1-.12.12a1.78,1.78,0,0,0,.13.3v.84a6.28,6.28,0,0,0,0,4.72v8.62c-.8,2-2.22,1.34-3.6.86l.06-.92s.13-.08.12-.11A1.74,1.74,0,0,0,210.24,302.18ZM213.16,284l-.27-.71c-.07.11-.18.21-.19.32a2.79,2.79,0,0,0,.08.57Zm-.13,4.32-.17-.33c0,.05-.13.1-.13.15a2.43,2.43,0,0,0,.06.39Z" transform="translate(-108.87 -27.79)"/><path class="cls-1" d="M166.7,288.43c1.35-1.89,3.73-1.66,5.41-2.83.68.85.09,1.8.58,2.54l-.2,15.7-4.23-.09c-.61,0-1.33.17-1.55-.71Z" transform="translate(-108.87 -27.79)"/><path class="cls-3" d="M191.49,278.23l0-2.19c1.17-.51,1.08-2.74,2.52-2.41s.08,2.29,1,3.23v1.75a3.2,3.2,0,0,0,0,3V285a4,4,0,0,0,0,3.4v6.87s-.14.09-.13.12a1.79,1.79,0,0,0,.13.3v.87s-.14.09-.13.12a1.79,1.79,0,0,0,.13.3v1.3s-.14.09-.13.12a1.81,1.81,0,0,0,.13.3v3.44c-.08.11-.22.22-.24.34-.2,1.37-1.17,1.47-2.23,1.31s-.8-1.18-.81-1.88c0-7.13,0-14.27,0-21.4A5,5,0,0,0,191.49,278.23Z" transform="translate(-108.87 -27.79)"/><path class="cls-3" d="M182,303.48q.06-11,.13-22c.4-1.38,2.16-.93,2.82-2.07.12-.21.21.7.63.86q0,10.94,0,21.89C185.19,304.92,183.24,303.27,182,303.48Z" transform="translate(-108.87 -27.79)"/><path class="cls-1" d="M163.07,303.84c-1.89-.36-3.86.32-5.73-.39l0-8.58c.27-4.1.27-4.09,4.34-5.23a2.56,2.56,0,0,1,1.62-.22Z" transform="translate(-108.87 -27.79)"/><path class="cls-3" d="M200.78,303.5l.08-22.37a5.55,5.55,0,0,1,.37-.48c1.1.68,2.55,1.27,2.59,2.72.17,5.93.19,11.87.24,17.8C204.09,304,203.55,304.37,200.78,303.5Z" transform="translate(-108.87 -27.79)"/><path class="cls-1" d="M147.89,293.59c1.8-1.11,3.93-1.05,5.87-1.67l.09,11c-.56,1.23-1.67.76-2.6.83s-2.11.08-3.17.11Z" transform="translate(-108.87 -27.79)"/><path class="cls-1" d="M144.39,303.49c-1.86.6-3.8,0-5.68.35-.39-3,0-6-.2-9a27.44,27.44,0,0,1,5.88-.72Q144.39,298.82,144.39,303.49Z" transform="translate(-108.87 -27.79)"/><path class="cls-3" d="M172.49,303.83l.2-15.7c.27-1.23-.23-2.79,1.65-3.28.87-.23,1.43-.28,1.43.79,0,5.64.12,11.28,0,16.91C175.66,304.72,173.66,303.59,172.49,303.83Z" transform="translate(-108.87 -27.79)"/><path class="cls-3" d="M163.07,303.84l.18-14.41c.82-1.46,2.2-1,3.45-1V303C165.68,304.13,164.36,303.89,163.07,303.84Z" transform="translate(-108.87 -27.79)"/><path class="cls-1" d="M129.09,303.41l0-7.24c1.83-.91,3.81-.71,5.76-.82q0,4.25,0,8.49C132.9,303.47,130.94,304.18,129.09,303.41Z" transform="translate(-108.87 -27.79)"/><path class="cls-3" d="M153.84,302.91l-.09-11c.34-.09.69-.16,1-.27,1.53-.53,2.33-.14,2.17,1.62a1.8,1.8,0,0,0,.34,1.61l0,8.58C156.14,303.49,154.73,304.88,153.84,302.91Z" transform="translate(-108.87 -27.79)"/><path class="cls-3" d="M144.39,303.49q0-4.67,0-9.34c1.05-.89,2.27-.74,3.5-.56l.19,10.26Z" transform="translate(-108.87 -27.79)"/><path class="cls-3" d="M134.77,303.84q0-4.25,0-8.49c1.25,0,2.42-.66,3.69-.48.15,3-.2,6,.2,9Z" transform="translate(-108.87 -27.79)"/><path class="cls-3" d="M186.82,315.45a5.87,5.87,0,0,1-4.83,0l-.06-3.45c1.62.2,3.32-.45,4.88.45Z" transform="translate(-108.87 -27.79)"/><path class="cls-3" d="M155.33,312h5l-.07.85c-.78,3-.78,3-4.15,3h-.84Z" transform="translate(-108.87 -27.79)"/><path class="cls-3" d="M169,315.86h-4.93l0-3.71a19.72,19.72,0,0,1,4.83-.08Z" transform="translate(-108.87 -27.79)"/><path class="cls-1" d="M231.07,312a14.05,14.05,0,0,1,1.88-.23c.73,0,1.72-.31,2,.62a5.21,5.21,0,0,1,0,3.13c-.15.52-.71.35-1.1.35-.92,0-1.84,0-2.76,0Z" transform="translate(-108.87 -27.79)"/><path class="cls-3" d="M199.68,312.17a7.28,7.28,0,0,1,4.76.29l.1,3.42-4.93,0Z" transform="translate(-108.87 -27.79)"/><path class="cls-3" d="M137.56,312.13l4.83-.09,0,3.83h-4.92Z" transform="translate(-108.87 -27.79)"/><path class="cls-3" d="M222.15,315.87l-4.91,0,.05-3.72,4.82-.1Z" transform="translate(-108.87 -27.79)"/><path class="cls-3" d="M190.7,312.05l4.85,0,0,3.83-4.92,0Z" transform="translate(-108.87 -27.79)"/><path class="cls-3" d="M151.38,315.88l-4.91,0,.05-3.78,4.82,0Z" transform="translate(-108.87 -27.79)"/><path class="cls-3" d="M231.07,312l0,3.86c-1.59-.18-3.27.52-4.78-.46a11.47,11.47,0,0,1-.14-3.34Z" transform="translate(-108.87 -27.79)"/><path class="cls-3" d="M178,315.88l-4.91,0q0-1.88,0-3.75c1.62,0,3.27-.45,4.83.37Z" transform="translate(-108.87 -27.79)"/><path class="cls-3" d="M208.53,312.47a6.14,6.14,0,0,1,2.05-.48c1.21.08,2.55-.4,2.56,1.77,0,1.91-.74,2.34-2.39,2.15a21,21,0,0,0-2.35,0Z" transform="translate(-108.87 -27.79)"/><path class="cls-1" d="M146.53,312.05l-.05,3.78-4,0,0-3.83A11.71,11.71,0,0,1,146.53,312.05Z" transform="translate(-108.87 -27.79)"/><path class="cls-1" d="M195.58,315.87l0-3.83a10.6,10.6,0,0,1,4.14.13l-.07,3.66Z" transform="translate(-108.87 -27.79)"/><path class="cls-1" d="M173,312.08q0,1.88,0,3.75l-4,0-.06-3.8A12.16,12.16,0,0,1,173,312.08Z" transform="translate(-108.87 -27.79)"/><path class="cls-1" d="M226.19,312.07a11.47,11.47,0,0,0,.14,3.34c-1.3,1-2.8.24-4.18.45l0-3.83A14.44,14.44,0,0,1,226.19,312.07Z" transform="translate(-108.87 -27.79)"/><path class="cls-1" d="M151.38,315.88l0-3.85h4l-.07,3.88Z" transform="translate(-108.87 -27.79)"/><path class="cls-1" d="M217.29,312.13l-.05,3.72a8.51,8.51,0,0,0-1.28.05c-2.13.4-2.72-.53-2.51-2.54.11-1.1.43-1.55,1.52-1.44C215.75,312,216.52,312.06,217.29,312.13Z" transform="translate(-108.87 -27.79)"/><path class="cls-1" d="M164.13,312.14l0,3.71-.42,0c-3.19.08-3.19.08-3.43-3l.07-.85A9.92,9.92,0,0,1,164.13,312.14Z" transform="translate(-108.87 -27.79)"/><path class="cls-1" d="M178,315.88l-.08-3.43c1.26-1,2.7-.36,4.06-.44l.06,3.45C180.72,316.32,179.29,315.71,178,315.88Z" transform="translate(-108.87 -27.79)"/><path class="cls-1" d="M208.53,312.47l-.12,3.42-3.87,0-.1-3.42A3.65,3.65,0,0,1,208.53,312.47Z" transform="translate(-108.87 -27.79)"/><path class="cls-1" d="M190.7,312.05l0,3.79c-1.28-.14-2.64.5-3.84-.39v-3C188,311.42,189.39,312,190.7,312.05Z" transform="translate(-108.87 -27.79)"/><path class="cls-1" d="M137.56,312.13l0,3.73a8.11,8.11,0,0,0-1.28,0c-2.12.4-2.73-.51-2.51-2.53.11-1.1.42-1.56,1.51-1.45Z" transform="translate(-108.87 -27.79)"/><path class="cls-1" d="M244,312l.12,3.49-.15.41h0l-1.49,0c-2.27,0-3-1.06-2.36-3.25.19-.65.6-.71,1.11-.71C242.11,311.93,243,312,244,312Z" transform="translate(-108.87 -27.79)"/><path class="cls-1" d="M532.82,303.75l-4.54.06-.94-.42q0-36,0-71.94c0-.71.19-1.63-.46-2-1.74-1-1.38-2.61-1.38-4.12,0-8.49,0-17,0-26.1,1.75,4.4,3.34,8.2,4.77,12.07.81,2.2,2.25,4.12,2.74,6.45q0,17.39,0,34.77a13.26,13.26,0,0,0,.21,1.66l-.06,42.29c-.25.23-.22.43.06.61l-.07,5.39Z" transform="translate(-108.87 -27.79)"/><path class="cls-1" d="M536.68,224.91c1.8,1.9,2.7,4.37,4.17,6.48.67,1,1.18,2.05,1.76,3.08a84.13,84.13,0,0,0-.16,10c0,3.53-.32,7.08.2,10.61a5.27,5.27,0,0,0-.13.84q0,23.8,0,47.6a16.35,16.35,0,0,1-5.81,0c0-1.43-.62-2.86-.05-4.3V288.44q0-6.85,0-13.7,0-1.72,0-3.45a10.53,10.53,0,0,0,.1-1.06Q536.7,247.57,536.68,224.91Z" transform="translate(-108.87 -27.79)"/><path class="cls-1" d="M548.7,242.59c0,.07,0,.16.07.2,3.2,2.81,3.12,6.51,3.06,10.35-.15,8.64-.06,17.28-.06,25.91,0,.71.08,1.42.12,2.13v17.59a5,5,0,0,0,.16,3l-.2,1.73c-1.44.42-2.9,0-4.34.16-1.2.1-1.39-.59-1.46-1.49q0-10.29,0-20.58v-.43q0-3,0-6v-4.28q0-1.29,0-2.57v-.43q0-1.7,0-3.41c0-7.48.06-15,.11-22.45,0-.74-.35-1.59.45-2.18A6.9,6.9,0,0,0,548.7,242.59Z" transform="translate(-108.87 -27.79)"/><path class="cls-1" d="M555.47,296.14q0-16.5.08-33c0-3.75,0-7.51,0-11.88,2.79,3.22,6.19,5,5.76,9.79-.46,5.24,0,10.55,0,15.83q0,2.37,0,4.74c0,6.61-.08,13.22-.18,19.83,0,.73.57,2-.72,2.1-1.52.14-3.12.42-4.59-.24-.24-.11-.23-.91-.25-1.39-.06-1.63-.08-3.27-.12-4.9Z" transform="translate(-108.87 -27.79)"/><path class="cls-1" d="M564.87,290.15V260.79c2,1.76,3.6,3.15,5.19,4.51.79.68.53,1.57.54,2.39.1,5.2-.22,10.4.18,15.6l-.07,1.74a35.51,35.51,0,0,0,0,6.39l0,7.32v.42q0,1.29,0,2.59c-.17.91,0,2.26-1.53,1.83s-3.67,1.48-4.28-1.4v-3.45a14.33,14.33,0,0,0,0-3.83q0-1.51,0-3l0-.84Q564.87,290.59,564.87,290.15Z" transform="translate(-108.87 -27.79)"/><path class="cls-1" d="M574.23,280.34c0-3.26.08-6.51.15-9.77,0-.45-.27-1.07.37-1.29.46-.16.75.31,1.08.55a29.93,29.93,0,0,0,3.26,2.37c1.16.62.91,1.61,1.05,2.54l0,27.89a1.12,1.12,0,0,1-1.33,1c-1.49-.07-3-.11-4.48-.15L574.25,285v-.4q0-.86,0-1.71a2.59,2.59,0,0,0,0-1.76Z" transform="translate(-108.87 -27.79)"/><path class="cls-3" d="M546,275.16q0,3,0,6s-.14.1-.13.12a1.84,1.84,0,0,0,.14.3q0,10.29,0,20.58c-.48,2.33-2,1.79-3.55,1.32q0-23.8,0-47.6a5.28,5.28,0,0,1,.13-.84c.47.16,1-1.64,1.27-.13.4,2.68,2.16,5.12,1.41,8-.15.57-.18,1.33.71,1.54v3.41s-.14.09-.14.12a1.82,1.82,0,0,0,.13.31q0,1.29,0,2.57s-.14.1-.13.12a1.85,1.85,0,0,0,.14.3v3.43s-.14.09-.14.12A1.8,1.8,0,0,0,546,275.16Z" transform="translate(-108.87 -27.79)"/><path class="cls-3" d="M536.63,288.44v6.88a1.17,1.17,0,0,0,0,1.7v1.72s-.15.1-.14.12a1.83,1.83,0,0,0,.14.31c-.57,1.44,0,2.86.05,4.3-1.35.29-3,1.47-3.52-1q0-2.7.07-5.39l-.06-.61.06-42.29c2.41,0,.65,2.2,1.82,3.17v-5.22c.38,5.81,1.62,11.54,1.23,17.36a2.18,2.18,0,0,0,.33,1.83q0,1.72,0,3.45c-.69,1.35-.35,2.8-.3,4.18C536.42,282.1,535.87,285.3,536.63,288.44Z" transform="translate(-108.87 -27.79)"/><path class="cls-1" d="M583.62,278.19c.41-.74-.16-1.68.63-2.66,1.59,2.12,5.56,1.71,5.29,5.64q0,7.51,0,15,0,1.06,0,2.12,0,1.95,0,3.89c0,1-.35,1.6-1.51,1.48a14.76,14.76,0,0,0-2.75,0c-1.09.09-1.53-.44-1.66-1.41C583.83,294.22,583.78,286.21,583.62,278.19Z" transform="translate(-108.87 -27.79)"/><path class="cls-1" d="M593,283.65l.35-2.3c1.82.31,3.21,1.48,4.83,2.08.81.3.58,1,.76,1.59v18c-.87.68-4.55,1-5.33.46-.59-.4-.37-1-.41-1.55-.14-2.18.18-4.38-.21-6.56A117.09,117.09,0,0,0,593,283.65Z" transform="translate(-108.87 -27.79)"/><path class="cls-3" d="M583.62,278.19c.16,8,.21,16,0,24.06-.31.65-.25,1.52-1.32,1.64a2.05,2.05,0,0,1-2.16-1.27l0-27.89c1.83-.86,2.93-.3,3.17,1.6C583.39,277,582.78,277.69,583.62,278.19Z" transform="translate(-108.87 -27.79)"/><path class="cls-1" d="M602.38,287.29c.14-1.26.48-1.87,1.93-1.08,1.28.71,2.82.92,4,1.8q0,7.52,0,15c-1.57,1.16-3.37.69-5.07.61-1,0-.67-1.11-.67-1.74,0-3.76,0-7.53,0-11.29,0-.77-.13-1.54-.2-2.31Q602.39,287.8,602.38,287.29Z" transform="translate(-108.87 -27.79)"/><path class="cls-3" d="M593,283.65a117.09,117.09,0,0,1,0,11.75c-.39,2-.05,4.06-.18,6.09-.05.79.39,2-.7,2.17a2.1,2.1,0,0,1-2.6-1.47q0-1.94,0-3.89a1.71,1.71,0,0,0,0-2.12q0-7.51,0-15c1-.36.06-1.3.45-1.75C592.61,279.73,592.82,281.68,593,283.65Z" transform="translate(-108.87 -27.79)"/><path class="cls-1" d="M611.83,289.43c2.12,0,4,1,5.92,1.59l-.16,12.82H612Q611.91,296.64,611.83,289.43Z" transform="translate(-108.87 -27.79)"/><path class="cls-3" d="M564.89,291.88q0,1.51,0,3a5.23,5.23,0,0,0,0,3.83v3.45c-.39,1.2-1,2-2.46,1.67s-.79-1.51-.8-2.31c0-5.87,0-11.75,0-17.62a3.72,3.72,0,0,0-.26-2.29q0-2.37,0-4.74c4.11-1,1.27,2.56,2.21,3.62.9-.26.36-1.07.79-1.47.09.11.21.19.21.27-.09,3.33.27,6.67-.19,10-.06.44.23.63.51.84V291C564.5,291.32,564.55,291.6,564.89,291.88Z" transform="translate(-108.87 -27.79)"/><path class="cls-3" d="M555.47,296.14v.9c-1.1,1.26-.39,2.66-.33,4,.11,2.72-.63,3.26-3.29,2.44l.2-1.73a3.27,3.27,0,0,0-.16-3V281.18c1.21,0,1.12-.86,1.08-1.64s.17-1.53,1-1.59c1-.06.62.88.71,1.41.84,4.82.21,9.67.42,14.51C555.18,294.64,554.9,295.46,555.47,296.14Z" transform="translate(-108.87 -27.79)"/><path class="cls-3" d="M574.25,285l.06,18.48c-1.83.72-3.12.3-3.62-1.75q0-1.29,0-2.59s.14-.09.13-.12a1.77,1.77,0,0,0-.13-.3l0-7.32a14,14,0,0,0,0-6.39l.07-1.74c.3-.18.69-.29.88-.55,1-1.32,1.78-.91,2.58.16q0,.86,0,1.71s-.12.09-.12.12A1.7,1.7,0,0,0,574.25,285Z" transform="translate(-108.87 -27.79)"/><path class="cls-1" d="M621.34,291.93c1.93.63,4.07.54,5.86,1.67L627,303.85h-5.58Q621.39,297.89,621.34,291.93Z" transform="translate(-108.87 -27.79)"/><path class="cls-3" d="M602.38,287.29q0,.51,0,1c0,4.33-.06,8.66-.16,13,0,.84.57,2-.56,2.47a2.52,2.52,0,0,1-2.72-.72V285C601.27,284.31,602.11,284.86,602.38,287.29Z" transform="translate(-108.87 -27.79)"/><path class="cls-1" d="M630.76,294.08a32.82,32.82,0,0,1,5.8.81l-.14,8.95c-1.89-.33-3.86.3-5.72-.41Z" transform="translate(-108.87 -27.79)"/><path class="cls-3" d="M611.83,289.43q.09,7.21.18,14.42a5,5,0,0,1-3.63-.81q0-7.51,0-15C609.62,288.21,610.91,288.37,611.83,289.43Z" transform="translate(-108.87 -27.79)"/><path class="cls-1" d="M646,295.76l0,7.66c-1.48.62-3,.25-4.55.32-1.68.08-.79-1.47-1.31-2.14q0-1.13,0-2.26a.54.54,0,0,0,0-.76v-1.4c.08-1.44.68-2.11,2.24-1.78A31.59,31.59,0,0,0,646,295.76Z" transform="translate(-108.87 -27.79)"/><path class="cls-3" d="M621.34,291.93q0,6,.09,11.92h-3.85l.16-12.83Z" transform="translate(-108.87 -27.79)"/><path class="cls-3" d="M630.76,294.08l-.07,9.35c-1.18.5-2.46.17-3.68.42l.18-10.25C628.4,293.6,629.64,293.41,630.76,294.08Z" transform="translate(-108.87 -27.79)"/><path class="cls-3" d="M640.13,297.17q0,.7,0,1.4,0,.38,0,.76,0,1.13,0,2.26c-.12,2.61-2.12,2.09-3.72,2.24l.14-8.95C638,295.28,640.11,294.57,640.13,297.17Z" transform="translate(-108.87 -27.79)"/><path class="cls-3" d="M597.15,312a5.86,5.86,0,0,1,4.84.18l0,3.64-4.92,0Z" transform="translate(-108.87 -27.79)"/><path class="cls-3" d="M584.42,315.85h-4.93l.06-3.8a21.66,21.66,0,0,1,4.82.07Z" transform="translate(-108.87 -27.79)"/><path class="cls-3" d="M557.83,315.85l-4.91,0,.05-3.81a20.85,20.85,0,0,1,4.82.09Z" transform="translate(-108.87 -27.79)"/><path class="cls-3" d="M611,315.85h-4.91l0-3.83,4.82.08Z" transform="translate(-108.87 -27.79)"/><path class="cls-1" d="M628.56,312a9.24,9.24,0,0,1,4.11,0q0,1.93,0,3.86l-4,0Z" transform="translate(-108.87 -27.79)"/><path class="cls-3" d="M632.65,315.86q0-1.93,0-3.86l4.88.05v3.8Z" transform="translate(-108.87 -27.79)"/><path class="cls-3" d="M575.46,315.83l-4.92,0,.09-3.42c1.53-.85,3.17-.31,4.76-.4Z" transform="translate(-108.87 -27.79)"/><path class="cls-3" d="M566.52,315.46c-1,.79-2.18.35-3.28.42-1.5.1-1.22-1-1.22-1.91s-.31-2,1.19-2c1.13,0,2.26,0,3.39,0Z" transform="translate(-108.87 -27.79)"/><path class="cls-3" d="M544,312c1.79-.35,3.52-.45,4.76,1.27l.14,2.53-4.93,0Z" transform="translate(-108.87 -27.79)"/><path class="cls-3" d="M628.56,312l.09,3.8c-1.62-.09-3.29.45-4.85-.39q0-1.5,0-3C625.32,311.61,627,312.15,628.56,312Z" transform="translate(-108.87 -27.79)"/><path class="cls-3" d="M619.83,315.89a16.53,16.53,0,0,0-2.34,0c-1.91.28-2.52-.48-2.37-2.37.1-1.23.53-1.59,1.69-1.56a7.29,7.29,0,0,1,2.91.48Z" transform="translate(-108.87 -27.79)"/><path class="cls-3" d="M593.25,315.89c-.92,0-1.84-.07-2.75,0-1.45.14-2-.37-2-1.88s.44-2.23,2-2c.83.1,1.69.07,2.53.1Z" transform="translate(-108.87 -27.79)"/><path class="cls-1" d="M548.9,315.83l-.14-2.53c0-1.2.61-1.58,1.73-1.43.82.11,1.66.13,2.48.19l-.05,3.81Z" transform="translate(-108.87 -27.79)"/><path class="cls-1" d="M575.46,315.83l-.06-3.78a9.55,9.55,0,0,1,4.15,0l-.06,3.8Z" transform="translate(-108.87 -27.79)"/><path class="cls-3" d="M540.12,315.89a11.08,11.08,0,0,0-2.51,0c-2,.42-2.28-.57-2.22-2.23,0-1.19.4-1.7,1.62-1.62,1,.07,2,0,3,0l0,1.31-.26.4-.35.31c0,.42.23.55.59.59Z" transform="translate(-108.87 -27.79)"/><path class="cls-1" d="M606.12,312l0,3.83-4,0,0-3.64A9.68,9.68,0,0,1,606.12,312Z" transform="translate(-108.87 -27.79)"/><path class="cls-1" d="M540.12,315.89l-.18-1.26c.14-.53-.29-.5-.59-.59l.35-.31c.32,0,.35-.15.26-.4l0-1.31a10.37,10.37,0,0,1,4,0l0,3.85Z" transform="translate(-108.87 -27.79)"/><path class="cls-1" d="M593.25,315.89l-.15-3.8a13.27,13.27,0,0,1,4.05-.09q0,1.93,0,3.86Z" transform="translate(-108.87 -27.79)"/><path class="cls-1" d="M557.83,315.85l0-3.71a7.36,7.36,0,0,1,1-.21c2.78-.16,3,.18,2.77,2.92-.09.88-.45,1.08-1.21,1S558.69,315.86,557.83,315.85Z" transform="translate(-108.87 -27.79)"/><path class="cls-1" d="M566.52,315.46l.09-3.45c1.35.08,2.79-.59,4,.44l-.09,3.42C569.21,315.7,567.78,316.33,566.52,315.46Z" transform="translate(-108.87 -27.79)"/><path class="cls-1" d="M584.42,315.85l0-3.72a11.37,11.37,0,0,1,1.68-.18c.67,0,1.7-.37,1.93.39a8.56,8.56,0,0,1,.09,3.15c0,.5-.68.4-1.09.4C586.12,315.89,585.27,315.86,584.42,315.85Z" transform="translate(-108.87 -27.79)"/><path class="cls-1" d="M611,315.85l-.05-3.74a11.52,11.52,0,0,1,1.26-.19c2.59-.11,2.7.06,2.56,2.72,0,.88-.24,1.33-1.21,1.26S611.84,315.87,611,315.85Z" transform="translate(-108.87 -27.79)"/><path class="cls-1" d="M619.83,315.89l-.13-3.42a3.7,3.7,0,0,1,4.09,0q0,1.5,0,3C622.56,316.36,621.14,315.69,619.83,315.89Z" transform="translate(-108.87 -27.79)"/><path class="cls-1" d="M637.56,315.85v-3.8a9.7,9.7,0,0,1,1.69-.12c.66.06,1.69-.36,1.91.42a8.63,8.63,0,0,1,.06,3.15c0,.48-.69.38-1.1.38C639.26,315.89,638.41,315.86,637.56,315.85Z" transform="translate(-108.87 -27.79)"/><path class="cls-1" d="M532.85,315.94c-.73,0-1.37-.09-1.26-1.13s0-1.8,0-2.7a6.7,6.7,0,0,1,1.05-.13c1,0,2.34-.65,2.36,1.35C535.07,315,535.12,316.36,532.85,315.94Z" transform="translate(-108.87 -27.79)"/><path class="cls-1" d="M268.45,273c-.05,4.75-.12,9.51-.16,14.26q-.07,8.2-.11,16.4c-5.49.09-5.48.09-5.49-5.34q0-32.85,0-65.7c0-1.58.15-3.19-1.64-4-.47-.22-.39-.72-.39-1.14,0-9.24,0-18.48.32-27.8,1.24,3.14,2.54,6.25,3.7,9.42s2.93,5.86,3.73,9.06c0,.57-.13,1.13-.13,1.7q0,25.64,0,51.28C268.27,271.76,268.38,272.39,268.45,273Z" transform="translate(-108.87 -27.79)"/><path class="cls-2" d="M268.45,273c-.06-.63-.18-1.27-.18-1.9q0-25.64,0-51.28c0-.57.08-1.13.13-1.7,1.3,2.06,2.85,4,3.4,6.44q0,23.16-.05,46.32c-.85,1.83-.2,3.76-.38,5.64-.15,1.58.22,3.19-.24,4.83-.78-.29-.58-.86-.59-1.29-.06-2.41.24-4.87-.63-7.19C269.37,271.46,269,273.17,268.45,273Z" transform="translate(-108.87 -27.79)"/><path class="cls-2" d="M277,226.17c-.45.7-.95,1-1.63.24-.23-.27-.56-.51-.19-.85,1-.92,1.17.5,1.81.63Z" transform="translate(-108.87 -27.79)"/><path class="cls-2" d="M277.38,228c-.27,0-.59,0-.64-.39,0-.07.16-.25.23-.24.37,0,.36.37.4.64Z" transform="translate(-108.87 -27.79)"/><path class="cls-2" d="M277.37,228c.65.45.36,1.13.43,1.72h0c-.64-.45-.37-1.12-.43-1.72Z" transform="translate(-108.87 -27.79)"/><path class="cls-2" d="M275.55,228l-.12.15c0-.06-.09-.12-.09-.17s.07-.1.11-.15Z" transform="translate(-108.87 -27.79)"/><path class="cls-2" d="M275.79,224.08l-.25.19.21-.23Z" transform="translate(-108.87 -27.79)"/><path class="cls-2" d="M514.48,226.73l0-27.6q0-7,0-14a2.46,2.46,0,0,1,2.93-1.75,11.59,11.59,0,0,0,2.56,0c1.68-.15,2.24.56,2.23,2.23q-.07,19.57,0,39.13c0,1.45-.36,2.07-1.91,2C518.34,226.64,516.41,226.73,514.48,226.73Z" transform="translate(-108.87 -27.79)"/><path class="cls-2" d="M536.62,271.3a2.18,2.18,0,0,1-.33-1.83c.39-5.82-.84-11.55-1.23-17.36v5.22c-1.16-1,.59-3.18-1.82-3.17a13.26,13.26,0,0,1-.21-1.66q0-17.39,0-34.77a38.9,38.9,0,0,1,3.66,7.18q0,22.66,0,45.33A10.53,10.53,0,0,1,536.62,271.3Z" transform="translate(-108.87 -27.79)"/><path class="cls-2" d="M546,264.47c-.89-.21-.86-1-.71-1.54.75-2.89-1-5.32-1.41-8-.22-1.51-.8.29-1.27.13-.51-3.53-.18-7.07-.2-10.61a84.13,84.13,0,0,1,.16-10l4,5.37c-.8.59-.45,1.44-.45,2.18C546.08,249.5,546.06,257,546,264.47Z" transform="translate(-108.87 -27.79)"/><path class="cls-2" d="M549,239.17l-.11.14c0-.05-.08-.11-.08-.16s.07-.09.11-.14Z" transform="translate(-108.87 -27.79)"/><path class="cls-2" d="M527.34,303.38l.94.42C527.86,303.9,527.48,303.91,527.34,303.38Z" transform="translate(-108.87 -27.79)"/><path class="cls-2" d="M549.72,240.24c-.05,0-.11.08-.16.08s-.09-.07-.14-.11Z" transform="translate(-108.87 -27.79)"/><path class="cls-3" d="M554.54,271.29a6.7,6.7,0,0,1-.08,3.45A6.78,6.78,0,0,1,554.54,271.29Z" transform="translate(-108.87 -27.79)"/><path class="cls-3" d="M574.23,280.34v.8c-.17-.1-.45-.16-.49-.3C573.62,280.46,574,280.42,574.23,280.34Z" transform="translate(-108.87 -27.79)"/><path class="cls-2" d="M507.11,276.88c-1.32.27-.75,1.33-.83,2.08s0,1.69,0,3.08c-1-3.73-.79-7-1.25-10.27v8.91c-.62-3.26-1.47-6.5-.46-9.79.18-.59-.46-.92-.83-1.3q0-22.89,0-45.78a23.68,23.68,0,0,1,3.41-6.53c0,4.48.08,9,.09,13.45q0,21.9,0,43.8C507.2,275.32,507.14,276.1,507.11,276.88Z" transform="translate(-108.87 -27.79)"/><path class="cls-2" d="M497.68,254.17c-.91.89.05,2.21-.79,3.27-.8-.68-.29-1.59-.61-2.57-.33,2-1.27.5-2,.58-.15-5-.18-10,0-15,.13,0,.38-.08.38-.12-.14-2.74,1.43-4.73,3-6.73C497.86,240.45,497.87,247.31,497.68,254.17Z" transform="translate(-108.87 -27.79)"/><path class="cls-2" d="M475.49,265.3v-3C476.73,263.3,475.73,264.3,475.49,265.3Z" transform="translate(-108.87 -27.79)"/><path class="cls-2" d="M241.84,255.86c-1,.47-2,1.23-2.42-.57,0-.16-.61-.18-.94-.26l-.1-30.1a18.51,18.51,0,0,1,3.46-6.36q.07,14.6.12,29.2C242,250.47,241.88,253.16,241.84,255.86Z" transform="translate(-108.87 -27.79)"/><path class="cls-2" d="M232.46,265.36c-1.14.27-2.26-1.26-3.4,0,0-7.82,0-15.64-.14-23.45,0-.61.77-1.86-.84-1.86a45.3,45.3,0,0,0,4.61-6.44q0,14.63,0,29.26A6,6,0,0,1,232.46,265.36Z" transform="translate(-108.87 -27.79)"/><path class="cls-2" d="M223.12,267.93c-1.13.49-.49,1.49-.61,2.25-.16,1,.19,2-.75,3v-8.27c-.6,3.5-1.18,7-1.51,10.47-.42,4.37.14,8.77-.65,13.1q0-17-.08-34c0-1,0-2,0-3,1.18-1.56,2.06-3.35,3.65-4.58C223.34,253.9,223.42,260.91,223.12,267.93Zm-.81-.42a4.74,4.74,0,0,0,0-2.83A4.74,4.74,0,0,0,222.31,267.51Z" transform="translate(-108.87 -27.79)"/><path class="cls-2" d="M217.11,251.9c.05,0,.14,0,.14.06a.56.56,0,0,1-.05.18c-.05,0-.14,0-.14-.05A.57.57,0,0,1,217.11,251.9Z" transform="translate(-108.87 -27.79)"/><path class="cls-2" d="M243.92,315.87l.15-.41a1.78,1.78,0,0,1,0,.34S244,315.85,243.92,315.87Z" transform="translate(-108.87 -27.79)"/><path class="cls-2" d="M510.44,303.8a.47.47,0,0,1,.69,0Z" transform="translate(-108.87 -27.79)"/><path class="cls-2" d="M300,298.3a1.68,1.68,0,0,1-.36-1.4q0-10.59,0-21.18a1.79,1.79,0,0,1,.33-1.41Z" transform="translate(-108.87 -27.79)"/><path class="cls-2" d="M306,267.29l0,1A.75.75,0,0,1,306,267.29Z" transform="translate(-108.87 -27.79)"/><path class="cls-2" d="M466.05,278.17a3.67,3.67,0,0,1,0,3.41Q466,279.88,466.05,278.17Z" transform="translate(-108.87 -27.79)"/><path class="cls-2" d="M466,285c.38.28.38.56,0,.84Z" transform="translate(-108.87 -27.79)"/><path class="cls-2" d="M315.37,274.27l.32.34-.33.17Q315.37,274.52,315.37,274.27Z" transform="translate(-108.87 -27.79)"/><path class="cls-2" d="M450.64,280.75l-.52,0h0a.87.87,0,0,1,.51-.88A.59.59,0,0,1,450.64,280.75Z" transform="translate(-108.87 -27.79)"/><path class="cls-2" d="M495.68,265.27v-7.14h.17v7.14Z" transform="translate(-108.87 -27.79)"/><path class="cls-2" d="M334.11,298.76a3.49,3.49,0,0,1,0,3A7.92,7.92,0,0,1,334.11,298.76Z" transform="translate(-108.87 -27.79)"/><path class="cls-2" d="M437.81,285.88a1.78,1.78,0,0,1,.12.31s-.09.08-.14.12Z" transform="translate(-108.87 -27.79)"/><path class="cls-2" d="M450.12,280.73l-.09.17.1-.16Z" transform="translate(-108.87 -27.79)"/><path class="cls-2" d="M419,298.75a1.75,1.75,0,0,1,.13.29s-.08.07-.12.11A.31.31,0,0,1,419,298.75Z" transform="translate(-108.87 -27.79)"/><path class="cls-2" d="M403.73,298.73a.79.79,0,0,1,0-1.27Z" transform="translate(-108.87 -27.79)"/><path class="cls-2" d="M403.75,303c-.38-.28-.39-.56,0-.85Z" transform="translate(-108.87 -27.79)"/><path class="cls-2" d="M409.58,302.17a1.74,1.74,0,0,1,.12.3s-.08.08-.12.12Z" transform="translate(-108.87 -27.79)"/><path class="cls-2" d="M366,302.6a1.8,1.8,0,0,1-.14-.31s.09-.08.13-.13Z" transform="translate(-108.87 -27.79)"/><path class="cls-2" d="M394.3,301.32c-1.45-.57-.29-1.14,0-1.71Q394.3,300.47,394.3,301.32Z" transform="translate(-108.87 -27.79)"/><path class="cls-2" d="M394.3,297a1.86,1.86,0,0,1-.14-.31s.09-.08.14-.12Z" transform="translate(-108.87 -27.79)"/><path class="cls-2" d="M394.3,298.31a1.8,1.8,0,0,1-.13-.31s.09-.08.14-.12Z" transform="translate(-108.87 -27.79)"/><path class="cls-2" d="M232.45,281.76a34,34,0,0,1,0-6.94A23.6,23.6,0,0,1,232.45,281.76Z" transform="translate(-108.87 -27.79)"/><path class="cls-2" d="M232.5,288.38a8.87,8.87,0,0,1,0-3.53A6.54,6.54,0,0,1,232.5,288.38Z" transform="translate(-108.87 -27.79)"/><path class="cls-2" d="M238.45,302.16c.19.06.52.08.55.19.08.31-.15.5-.43.61Z" transform="translate(-108.87 -27.79)"/><path class="cls-2" d="M213.77,294a6.28,6.28,0,0,1,0-4.72Z" transform="translate(-108.87 -27.79)"/><path class="cls-2" d="M219.6,296.17c.36,1.14,1,2.27,0,3.41Q219.6,297.88,219.6,296.17Z" transform="translate(-108.87 -27.79)"/><path class="cls-2" d="M219.6,291.88a3.89,3.89,0,0,1,0,3.42Q219.6,293.59,219.6,291.88Z" transform="translate(-108.87 -27.79)"/><path class="cls-2" d="M213.77,284.58a2.63,2.63,0,0,1,0-2.54A5.67,5.67,0,0,1,213.77,284.58Z" transform="translate(-108.87 -27.79)"/><path class="cls-2" d="M213.78,288.45a1.78,1.78,0,0,1-.13-.3s.08-.08.12-.12Z" transform="translate(-108.87 -27.79)"/><path class="cls-2" d="M210.35,288.43c.85,1.17.16,2.29-.09,3.43A6.86,6.86,0,0,1,210.35,288.43Z" transform="translate(-108.87 -27.79)"/><path class="cls-2" d="M210.26,282.57c.52-.08,1,0,1,.64s-.37.95-1,.84Q210.26,283.31,210.26,282.57Z" transform="translate(-108.87 -27.79)"/><path class="cls-2" d="M210.24,302.18a1.74,1.74,0,0,1,.12.28s-.08.07-.12.11A.3.3,0,0,1,210.24,302.18Z" transform="translate(-108.87 -27.79)"/><path class="cls-2" d="M195,288.44a4,4,0,0,1,0-3.4Z" transform="translate(-108.87 -27.79)"/><path class="cls-2" d="M195,281.58a3.2,3.2,0,0,1,0-3Z" transform="translate(-108.87 -27.79)"/><path class="cls-2" d="M195,297a1.79,1.79,0,0,1-.13-.3s.09-.08.13-.12Z" transform="translate(-108.87 -27.79)"/><path class="cls-2" d="M195,295.73a1.79,1.79,0,0,1-.13-.3s.09-.08.13-.12Z" transform="translate(-108.87 -27.79)"/><path class="cls-2" d="M195,298.74a1.81,1.81,0,0,1-.13-.3s.09-.08.13-.12Z" transform="translate(-108.87 -27.79)"/><path class="cls-2" d="M213.16,284l-.38.19a2.79,2.79,0,0,1-.08-.57c0-.11.12-.22.19-.32Z" transform="translate(-108.87 -27.79)"/><path class="cls-2" d="M213,288.28l-.23.22a2.43,2.43,0,0,1-.06-.39s.08-.1.13-.15Z" transform="translate(-108.87 -27.79)"/><path class="cls-2" d="M533.19,296.46l.06.61C533,296.89,532.94,296.69,533.19,296.46Z" transform="translate(-108.87 -27.79)"/><path class="cls-2" d="M536.63,288.44c-.76-3.15-.21-6.35-.31-9.52,0-1.38-.39-2.83.3-4.18Q536.62,281.59,536.63,288.44Z" transform="translate(-108.87 -27.79)"/><path class="cls-2" d="M536.63,297a1.17,1.17,0,0,1,0-1.7Z" transform="translate(-108.87 -27.79)"/><path class="cls-2" d="M536.64,299.17a1.83,1.83,0,0,1-.14-.31s.09-.08.14-.12Z" transform="translate(-108.87 -27.79)"/><path class="cls-2" d="M551.89,298.77a3.27,3.27,0,0,1,.16,3A5,5,0,0,1,551.89,298.77Z" transform="translate(-108.87 -27.79)"/><path class="cls-2" d="M546,275.16a1.8,1.8,0,0,1-.13-.31s.09-.08.14-.12Z" transform="translate(-108.87 -27.79)"/><path class="cls-2" d="M546,281.59a1.84,1.84,0,0,1-.14-.3s.09-.08.13-.12Z" transform="translate(-108.87 -27.79)"/><path class="cls-2" d="M546,271.3a1.85,1.85,0,0,1-.14-.3s.09-.08.13-.12Z" transform="translate(-108.87 -27.79)"/><path class="cls-2" d="M546,268.3a1.82,1.82,0,0,1-.13-.31s.09-.08.14-.12Z" transform="translate(-108.87 -27.79)"/><path class="cls-2" d="M570.71,285a14,14,0,0,1,0,6.39A35.51,35.51,0,0,1,570.71,285Z" transform="translate(-108.87 -27.79)"/><path class="cls-2" d="M564.87,298.73a5.23,5.23,0,0,1,0-3.83A14.33,14.33,0,0,1,564.87,298.73Z" transform="translate(-108.87 -27.79)"/><path class="cls-2" d="M564.89,291.88c-.34-.27-.38-.55,0-.84Z" transform="translate(-108.87 -27.79)"/><path class="cls-2" d="M570.7,298.75a1.77,1.77,0,0,1,.13.3s-.09.08-.13.12Z" transform="translate(-108.87 -27.79)"/><path class="cls-2" d="M574.25,285a1.7,1.7,0,0,1-.12-.29s.08-.08.12-.12Z" transform="translate(-108.87 -27.79)"/><path class="cls-2" d="M589.53,296.18a1.71,1.71,0,0,1,0,2.12Q589.53,297.24,589.53,296.18Z" transform="translate(-108.87 -27.79)"/><path class="cls-2" d="M640.12,299.33q0-.38,0-.76A.54.54,0,0,1,640.12,299.33Z" transform="translate(-108.87 -27.79)"/><path class="cls-2" d="M539.36,314c.3.1.73.06.59.59C539.59,314.59,539.33,314.45,539.36,314Z" transform="translate(-108.87 -27.79)"/><path class="cls-2" d="M540,313.32c.09.25.06.41-.26.4Z" transform="translate(-108.87 -27.79)"/><path class="cls-3" d="M222.31,267.51a4.74,4.74,0,0,1,0-2.83A4.74,4.74,0,0,1,222.31,267.51Z" transform="translate(-108.87 -27.79)"/></g></svg>