<svg id="Layer_1" data-name="Layer 1" xmlns="http://www.w3.org/2000/svg" viewBox="0 0 176.26 63.63"><defs><style>.cls-1{fill:#fff;}</style></defs><title>swoosh</title><g id="tQ7hOl.tif"><path class="cls-1" d="M27.53,8.42c.2,1.29-.66,2.19-1.17,3.22C23.52,17.29,21.1,23,21.18,29.56c.12,8.78,6.25,15,15.06,15.4a56.55,56.55,0,0,0,17.26-2.3q61-16.27,122-32.48a3.14,3.14,0,0,1,2.34-.18c-.21.92-1.07.94-1.67,1.2q-64,27.4-128,54.75A71.67,71.67,0,0,1,25,72C16,72.61,6.91,69.62,3.11,60.73.83,55.39,1.39,50,2.9,44.65c2.61-9.29,8-17,14-24.36,3.3-4,6.74-7.92,10.11-11.87Z" transform="translate(-1.58 -8.42)"/></g></svg>